<?xml version="1.0" encoding="utf-8"?>
<!-- Generator: Adobe Illustrator 24.1.2, SVG Export Plug-In . SVG Version: 6.00 Build 0)  -->
<svg version="1.1" xmlns="http://www.w3.org/2000/svg" xmlns:xlink="http://www.w3.org/1999/xlink" x="0px" y="0px"
	 viewBox="0 0 119.1 152.6" style="enable-background:new 0 0 119.1 152.6;" xml:space="preserve">
<style type="text/css">
	.st0{fill:#9CA4FC;}
	.st1{fill:#D2F4EF;stroke:#000000;stroke-width:0.2;stroke-miterlimit:10;}
	.st2{fill:none;stroke:#000000;stroke-width:0.2;}
	.st3{fill:#7CDFD0;stroke:#000000;stroke-width:0.2;stroke-miterlimit:10;}
	.st4{fill:#FEFFFF;stroke:#000000;stroke-width:0.2;stroke-miterlimit:10;}
	.st5{fill:#FCFFFE;stroke:#000000;stroke-width:0.2;stroke-miterlimit:10;}
	.st6{fill:#FDFFFE;stroke:#000000;stroke-width:0.2;stroke-miterlimit:10;}
	.st7{fill:#E3F8F5;stroke:#000000;stroke-width:0.2;stroke-miterlimit:10;}
	.st8{fill:#F6FDFC;stroke:#000000;stroke-width:0.2;stroke-miterlimit:10;}
	.st9{fill:#EFFBFA;stroke:#000000;stroke-width:0.2;stroke-miterlimit:10;}
	.st10{fill:#44D1BC;stroke:#000000;stroke-width:0.2;stroke-miterlimit:10;}
	.st11{fill:#F7FDFC;stroke:#000000;stroke-width:0.2;stroke-miterlimit:10;}
	.st12{fill:#03C1A4;stroke:#000000;stroke-width:0.2;stroke-miterlimit:10;}
	.st13{fill:#04C1A5;stroke:#000000;stroke-width:0.2;stroke-miterlimit:10;}
	.st14{fill:#EDFBF9;stroke:#000000;stroke-width:0.2;stroke-miterlimit:10;}
	.st15{fill:#E5F9F6;stroke:#000000;stroke-width:0.2;stroke-miterlimit:10;}
	.st16{fill:#E0F8F4;stroke:#000000;stroke-width:0.2;stroke-miterlimit:10;}
	.st17{fill:#FBFEFE;stroke:#000000;stroke-width:0.2;stroke-miterlimit:10;}
	.st18{fill:#FDFFFF;stroke:#000000;stroke-width:0.2;stroke-miterlimit:10;}
	.st19{fill:#E9FAF7;stroke:#000000;stroke-width:0.2;stroke-miterlimit:10;}
	.st20{fill:#7ADECF;stroke:#000000;stroke-width:0.2;stroke-miterlimit:10;}
	.st21{fill:#75DDCE;stroke:#000000;stroke-width:0.2;stroke-miterlimit:10;}
</style>
<g id="Layer_51">
	<polygon class="st0" points="119.65,-0.43 119.65,130.5 116.7,130.5 116.7,126.6 114.7,126.6 114.7,122.7 112.7,122.7 112.7,116.7 
		110.8,116.7 110.8,112.8 108.8,112.8 108.8,108.8 106.8,108.8 106.8,104.9 102.9,104.9 102.9,102.9 98.9,102.9 98.9,100.9 
		96.9,100.9 96.9,99 95,99 95,97 89.1,97 89.1,95 87.1,95 87.1,93 85.1,93 85.1,91.1 83.1,91.1 83.1,89.1 81.2,89.1 81.2,85.1 
		79.2,85.1 79.2,83.2 81.2,83.2 83.1,85.1 83.1,87.1 85.1,87.1 85.1,89.1 87.1,89.1 87.1,91.1 89.1,91.1 89.1,93 98.9,93 98.9,95 
		102.9,95 102.9,97 104.8,97 104.8,91.1 102.9,89.1 102.9,87.1 100.9,87.1 100.9,85.1 98.9,85.1 98.9,81.2 96.9,81.2 96.9,79.2 
		95,79.2 95,77.2 93,77.2 93,73.3 91,73.3 91,71.3 89.1,71.3 89.1,69.3 87.1,67.4 87.1,63.4 85.1,63.4 85.1,59.5 83.1,59.5 
		83.1,47.6 85.1,47.6 85.1,45.7 89.1,45.7 89.1,41.7 85.1,41.7 85.1,39.7 81.2,39.7 81.2,37.8 79.2,37.8 79.2,35.8 77.2,35.8 
		77.2,31.8 73.3,31.8 73.3,29.9 71.3,29.9 71.3,25.9 69.3,25.9 69.3,20 67.3,20 67.3,16 65.4,16 65.4,14.1 63.4,14.1 63.4,10.1 
		61.4,10.1 61.4,8.1 59.4,8.1 59.4,6.2 53.5,6.2 53.5,2.2 49.6,2.2 49.6,0.3 45.65,0.3 45.65,-0.43 	"/>
	<rect x="77.2" y="81.15" class="st0" width="2" height="2"/>
	<rect x="73.34" y="83.1" class="st0" width="3.86" height="2"/>
</g>
<g id="Layer_50">
	<polyline class="st1" points="45.6,124.6 43.6,124.6 41.7,126.6 43.6,126.6 39.7,126.6 39.7,128.6 37.7,128.6 39.7,128.6 
		39.7,130.5 33.8,130.5 33.8,132.5 29.8,132.5 29.8,134.5 23.9,134.5 23.9,132.5 25.9,132.5 23.9,132.5 23.9,130.5 25.9,130.5 
		23.9,130.5 25.9,130.5 25.9,128.6 27.9,128.6 25.9,128.6 25.9,124.6 27.9,124.6 27.9,118.7 27.9,120.7 27.9,118.7 29.8,118.7 
		27.9,118.7 29.8,116.7 29.8,114.8 33.8,114.8 33.8,112.8 35.7,112.8 35.7,114.8 35.7,112.8 37.7,112.8 37.7,108.8 39.7,108.8 
		39.7,106.9 41.7,106.9 41.7,108.8 43.6,108.8 41.7,108.8 41.7,110.8 49.6,110.8 47.6,110.8 47.6,114.8 49.6,114.8 49.6,120.7 
		51.5,120.7 51.5,124.6 45.6,124.6 	"/>
</g>
<g id="Layer_49">
	<polyline class="st2" points="45.6,124.6 43.6,124.6 41.7,126.6 43.6,126.6 39.7,126.6 39.7,128.6 37.7,128.6 39.7,128.6 
		39.7,130.5 33.8,130.5 33.8,132.5 29.8,132.5 29.8,134.5 23.9,134.5 23.9,132.5 25.9,132.5 23.9,132.5 23.9,130.5 25.9,130.5 
		23.9,130.5 25.9,130.5 25.9,128.6 27.9,128.6 25.9,128.6 25.9,124.6 27.9,124.6 27.9,118.7 27.9,120.7 27.9,118.7 29.8,118.7 
		27.9,118.7 29.8,116.7 29.8,114.8 33.8,114.8 33.8,112.8 35.7,112.8 35.7,114.8 35.7,112.8 37.7,112.8 37.7,108.8 39.7,108.8 
		39.7,106.9 41.7,106.9 41.7,108.8 43.6,108.8 41.7,108.8 41.7,110.8 49.6,110.8 47.6,110.8 47.6,114.8 49.6,114.8 49.6,120.7 
		51.5,120.7 51.5,124.6 45.6,124.6 	"/>
</g>
<g id="Layer_48">
	<polyline class="st3" points="100.9,95 98.9,95 100.9,95 98.9,95 98.9,93 89.1,93 89.1,91.1 89.1,93 89.1,91.1 87.1,91.1 
		87.1,89.1 85.1,89.1 85.1,87.1 83.1,87.1 83.1,85.1 81.2,83.2 81.2,77.2 77.2,77.2 77.2,75.3 69.3,75.3 71.3,75.3 69.3,75.3 
		69.3,73.3 67.3,73.3 67.3,75.3 59.4,75.3 59.4,77.2 59.4,75.3 57.5,75.3 59.4,75.3 57.5,75.3 57.5,73.3 59.4,73.3 59.4,71.3 
		61.4,71.3 61.4,67.4 59.4,67.4 61.4,67.4 59.4,67.4 59.4,65.4 57.5,65.4 57.5,63.4 59.4,63.4 59.4,61.5 65.4,61.5 65.4,63.4 
		65.4,61.5 67.3,61.5 65.4,61.5 67.3,63.4 67.3,61.5 67.3,63.4 67.3,61.5 67.3,63.4 67.3,61.5 67.3,63.4 67.3,61.5 69.3,61.5 
		69.3,63.4 69.3,61.5 69.3,63.4 73.3,63.4 73.3,65.4 79.2,65.4 79.2,61.5 81.2,61.5 79.2,61.5 79.2,59.5 81.2,59.5 81.2,57.5 
		83.1,57.5 83.1,59.5 85.1,59.5 85.1,63.4 87.1,63.4 87.1,67.4 89.1,69.3 89.1,71.3 91,71.3 91,73.3 93,73.3 93,77.2 95,77.2 
		95,79.2 96.9,79.2 96.9,81.2 98.9,81.2 98.9,85.1 100.9,85.1 100.9,87.1 102.9,87.1 102.9,89.1 104.8,91.1 104.8,97 102.9,97 
		102.9,99 102.9,95 100.9,95 	"/>
</g>
<g id="Layer_47">
	<polyline class="st2" points="100.9,95 98.9,95 100.9,95 98.9,95 98.9,93 89.1,93 89.1,91.1 89.1,93 89.1,91.1 87.1,91.1 
		87.1,89.1 85.1,89.1 85.1,87.1 83.1,87.1 83.1,85.1 81.2,83.2 81.2,77.2 77.2,77.2 77.2,75.3 69.3,75.3 71.3,75.3 69.3,75.3 
		69.3,73.3 67.3,73.3 67.3,75.3 59.4,75.3 59.4,77.2 59.4,75.3 57.5,75.3 59.4,75.3 57.5,75.3 57.5,73.3 59.4,73.3 59.4,71.3 
		61.4,71.3 61.4,67.4 59.4,67.4 61.4,67.4 59.4,67.4 59.4,65.4 57.5,65.4 57.5,63.4 59.4,63.4 59.4,61.5 65.4,61.5 65.4,63.4 
		65.4,61.5 67.3,61.5 65.4,61.5 67.3,63.4 67.3,61.5 67.3,63.4 67.3,61.5 67.3,63.4 67.3,61.5 67.3,63.4 67.3,61.5 69.3,61.5 
		69.3,63.4 69.3,61.5 69.3,63.4 73.3,63.4 73.3,65.4 79.2,65.4 79.2,61.5 81.2,61.5 79.2,61.5 79.2,59.5 81.2,59.5 81.2,57.5 
		83.1,57.5 83.1,59.5 85.1,59.5 85.1,63.4 87.1,63.4 87.1,67.4 89.1,69.3 89.1,71.3 91,71.3 91,73.3 93,73.3 93,77.2 95,77.2 
		95,79.2 96.9,79.2 96.9,81.2 98.9,81.2 98.9,85.1 100.9,85.1 100.9,87.1 102.9,87.1 102.9,89.1 104.8,91.1 104.8,97 102.9,97 
		102.9,99 102.9,95 100.9,95 	"/>
</g>
<g id="Layer_46">
	<polyline class="st4" points="41.7,110.8 41.7,108.8 43.6,108.8 41.7,108.8 41.7,106.9 39.7,106.9 41.7,106.9 41.7,104.9 
		39.7,104.9 39.7,102.9 43.6,102.9 41.7,100.9 43.6,100.9 43.6,99 43.6,100.9 43.6,99 41.7,99 43.6,99 43.6,91.1 31.8,91.1 
		31.8,89.1 29.8,89.1 31.8,89.1 31.8,85.1 33.8,85.1 33.8,87.1 37.7,87.1 37.7,85.1 37.7,87.1 39.7,87.1 39.7,85.1 41.7,85.1 
		41.7,83.2 43.6,83.2 43.6,85.1 45.6,83.2 45.6,87.1 43.6,87.1 47.6,87.1 47.6,85.1 49.6,85.1 49.6,87.1 51.5,87.1 51.5,85.1 
		53.5,85.1 53.5,87.1 55.5,87.1 55.5,85.1 57.5,85.1 57.5,83.2 59.4,83.2 63.4,87.1 67.3,87.1 67.3,91.1 69.3,91.1 69.3,93 71.3,93 
		71.3,95 73.3,95 73.3,97 75.2,97 75.2,100.9 73.3,100.9 73.3,99 69.3,99 69.3,100.9 61.4,100.9 61.4,97 59.4,97 59.4,95 55.5,95 
		55.5,100.9 51.5,100.9 51.5,106.9 49.6,106.9 49.6,110.8 41.7,110.8 	"/>
</g>
<g id="Layer_45">
	<polyline class="st2" points="41.7,110.8 41.7,108.8 43.6,108.8 41.7,108.8 41.7,106.9 39.7,106.9 41.7,106.9 41.7,104.9 
		39.7,104.9 39.7,102.9 43.6,102.9 41.7,100.9 43.6,100.9 43.6,99 43.6,100.9 43.6,99 41.7,99 43.6,99 43.6,91.1 31.8,91.1 
		31.8,89.1 29.8,89.1 31.8,89.1 31.8,85.1 33.8,85.1 33.8,87.1 37.7,87.1 37.7,85.1 37.7,87.1 39.7,87.1 39.7,85.1 41.7,85.1 
		41.7,83.2 43.6,83.2 43.6,85.1 45.6,83.2 45.6,87.1 43.6,87.1 47.6,87.1 47.6,85.1 49.6,85.1 49.6,87.1 51.5,87.1 51.5,85.1 
		53.5,85.1 53.5,87.1 55.5,87.1 55.5,85.1 57.5,85.1 57.5,83.2 59.4,83.2 63.4,87.1 67.3,87.1 67.3,91.1 69.3,91.1 69.3,93 71.3,93 
		71.3,95 73.3,95 73.3,97 75.2,97 75.2,100.9 73.3,100.9 73.3,99 69.3,99 69.3,100.9 61.4,100.9 61.4,97 59.4,97 59.4,95 55.5,95 
		55.5,100.9 51.5,100.9 51.5,106.9 49.6,106.9 49.6,110.8 41.7,110.8 	"/>
</g>
<g id="Layer_44">
	<polyline class="st5" points="85.1,99 83.1,99 83.1,97 81.2,97 81.2,95 77.2,95 79.2,95 77.2,95 79.2,95 77.2,95 79.2,95 77.2,95 
		79.2,95 79.2,97 77.2,97 79.2,97 77.2,97 77.2,100.9 75.2,100.9 75.2,97 73.3,97 73.3,95 71.3,95 71.3,93 69.3,93 69.3,91.1 
		67.3,91.1 67.3,85.1 71.3,85.1 69.3,85.1 77.2,85.1 77.2,83.2 79.2,83.2 79.2,85.1 81.2,85.1 81.2,89.1 83.1,89.1 83.1,91.1 
		85.1,91.1 85.1,93 87.1,93 87.1,95 89.1,95 89.1,97 91,97 89.1,97 89.1,99 87.1,99 89.1,99 87.1,99 89.1,99 89.1,100.9 87.1,100.9 
		89.1,100.9 89.1,102.9 91,102.9 89.1,102.9 91,102.9 91,100.9 93,100.9 91,100.9 93,100.9 93,99 95,99 93,99 93,97 95,97 95,99 
		96.9,99 96.9,100.9 98.9,100.9 98.9,102.9 95,102.9 95,104.9 95,102.9 93,102.9 93,106.9 91,106.9 91,110.8 89.1,112.8 89.1,110.8 
		87.1,110.8 87.1,108.8 85.1,108.8 85.1,106.9 83.1,106.9 85.1,106.9 85.1,104.9 83.1,102.9 83.1,100.9 85.1,100.9 85.1,99 	"/>
</g>
<g id="Layer_43">
	<polyline class="st2" points="85.1,99 83.1,99 83.1,97 81.2,97 81.2,95 77.2,95 79.2,95 77.2,95 79.2,95 77.2,95 79.2,95 77.2,95 
		79.2,95 79.2,97 77.2,97 79.2,97 77.2,97 77.2,100.9 75.2,100.9 75.2,97 73.3,97 73.3,95 71.3,95 71.3,93 69.3,93 69.3,91.1 
		67.3,91.1 67.3,85.1 71.3,85.1 69.3,85.1 77.2,85.1 77.2,83.2 79.2,83.2 79.2,85.1 81.2,85.1 81.2,89.1 83.1,89.1 83.1,91.1 
		85.1,91.1 85.1,93 87.1,93 87.1,95 89.1,95 89.1,97 91,97 89.1,97 89.1,99 87.1,99 89.1,99 87.1,99 89.1,99 89.1,100.9 87.1,100.9 
		89.1,100.9 89.1,102.9 91,102.9 89.1,102.9 91,102.9 91,100.9 93,100.9 91,100.9 93,100.9 93,99 95,99 93,99 93,97 95,97 95,99 
		96.9,99 96.9,100.9 98.9,100.9 98.9,102.9 95,102.9 95,104.9 95,102.9 93,102.9 93,106.9 91,106.9 91,110.8 89.1,112.8 89.1,110.8 
		87.1,110.8 87.1,108.8 85.1,108.8 85.1,106.9 83.1,106.9 85.1,106.9 85.1,104.9 83.1,102.9 83.1,100.9 85.1,100.9 85.1,99 	"/>
</g>
<g id="Layer_42">
	<polyline class="st6" points="27.9,106.9 25.9,106.9 27.9,106.9 27.9,102.9 29.8,102.9 29.8,100.9 31.8,100.9 31.8,99 29.8,99 
		31.8,99 29.8,99 31.8,99 31.8,97 33.8,97 31.8,97 33.8,97 33.8,102.9 35.7,102.9 35.7,100.9 37.7,100.9 35.7,100.9 35.7,102.9 
		37.7,102.9 35.7,102.9 37.7,102.9 35.7,102.9 35.7,104.9 31.8,104.9 33.8,104.9 31.8,104.9 33.8,104.9 31.8,106.9 27.9,106.9 	"/>
</g>
<g id="Layer_41">
	<polyline class="st2" points="27.9,106.9 25.9,106.9 27.9,106.9 27.9,102.9 29.8,102.9 29.8,100.9 31.8,100.9 31.8,99 29.8,99 
		31.8,99 29.8,99 31.8,99 31.8,97 33.8,97 31.8,97 33.8,97 33.8,102.9 35.7,102.9 35.7,100.9 37.7,100.9 35.7,100.9 35.7,102.9 
		37.7,102.9 35.7,102.9 37.7,102.9 35.7,102.9 35.7,104.9 31.8,104.9 33.8,104.9 31.8,104.9 33.8,104.9 31.8,106.9 27.9,106.9 	"/>
</g>
<g id="Layer_40">
	<polyline class="st7" points="37.7,95 37.7,97 35.7,97 35.7,99 33.8,99 33.8,97 31.8,97 33.8,97 31.8,97 31.8,99 29.8,99 31.8,99 
		29.8,99 31.8,99 31.8,100.9 29.8,100.9 29.8,102.9 27.9,102.9 27.9,106.9 25.9,106.9 25.9,104.9 25.9,106.9 23.9,106.9 23.9,108.8 
		23.9,106.9 20,106.9 20,108.8 20,106.9 20,108.8 20,106.9 18,106.9 18,104.9 20,104.9 20,100.9 16,100.9 16,99 20,99 20,97 
		21.9,97 21.9,95 23.9,95 21.9,95 23.9,95 23.9,93 29.8,93 29.8,91.1 29.8,93 29.8,91.1 43.6,91.1 43.6,97 41.7,97 41.7,93 39.7,93 
		39.7,95 39.7,93 37.7,93 37.7,95 	"/>
</g>
<g id="Layer_39">
	<polyline class="st2" points="37.7,95 37.7,97 35.7,97 35.7,99 33.8,99 33.8,97 31.8,97 33.8,97 31.8,97 31.8,99 29.8,99 31.8,99 
		29.8,99 31.8,99 31.8,100.9 29.8,100.9 29.8,102.9 27.9,102.9 27.9,106.9 25.9,106.9 25.9,104.9 25.9,106.9 23.9,106.9 23.9,108.8 
		23.9,106.9 20,106.9 20,108.8 20,106.9 20,108.8 20,106.9 18,106.9 18,104.9 20,104.9 20,100.9 16,100.9 16,99 20,99 20,97 
		21.9,97 21.9,95 23.9,95 21.9,95 23.9,95 23.9,93 29.8,93 29.8,91.1 29.8,93 29.8,91.1 43.6,91.1 43.6,97 41.7,97 41.7,93 39.7,93 
		39.7,95 39.7,93 37.7,93 37.7,95 	"/>
</g>
<g id="Layer_38">
	<polyline class="st4" points="43.6,97 43.6,99 41.7,99 43.6,99 43.6,100.9 43.6,99 43.6,100.9 41.7,100.9 43.6,102.9 39.7,102.9 
		39.7,104.9 41.7,104.9 41.7,106.9 39.7,106.9 39.7,108.8 37.7,108.8 37.7,112.8 35.7,112.8 35.7,114.8 35.7,112.8 33.8,112.8 
		33.8,114.8 29.8,114.8 29.8,116.7 29.8,114.8 29.8,116.7 27.9,116.7 27.9,112.8 21.9,112.8 21.9,108.8 18,108.8 20,108.8 18,108.8 
		20,108.8 20,106.9 20,108.8 20,106.9 20,108.8 20,106.9 23.9,106.9 23.9,108.8 23.9,106.9 25.9,106.9 25.9,104.9 25.9,106.9 
		31.8,106.9 33.8,104.9 31.8,104.9 33.8,104.9 31.8,104.9 35.7,104.9 35.7,102.9 37.7,102.9 35.7,102.9 37.7,102.9 35.7,102.9 
		35.7,100.9 37.7,100.9 35.7,100.9 35.7,102.9 33.8,102.9 33.8,99 35.7,99 35.7,97 37.7,97 37.7,93 39.7,93 39.7,95 39.7,93 
		41.7,93 41.7,97 43.6,97 	"/>
</g>
<g id="Layer_37">
	<polyline class="st8" points="65.4,61.5 59.4,61.5 59.4,63.4 57.5,63.4 57.5,65.4 59.4,65.4 59.4,67.4 61.4,67.4 59.4,67.4 
		61.4,67.4 61.4,71.3 59.4,71.3 59.4,73.3 57.5,73.3 57.5,75.3 55.5,75.3 55.5,77.2 53.5,77.2 53.5,71.3 47.6,71.3 47.6,73.3 
		45.6,73.3 45.6,69.3 41.7,69.3 41.7,71.3 39.7,71.3 39.7,69.3 39.7,71.3 39.7,69.3 41.7,69.3 41.7,67.4 39.7,67.4 41.7,67.4 
		39.7,67.4 39.7,63.4 41.7,63.4 39.7,63.4 39.7,61.5 41.7,61.5 41.7,59.5 39.7,59.5 39.7,57.5 41.7,57.5 39.7,57.5 41.7,57.5 
		41.7,55.5 43.6,55.5 43.6,53.6 51.5,53.6 51.5,55.5 55.5,55.5 55.5,53.6 53.5,53.6 55.5,53.6 55.5,51.6 57.5,51.6 57.5,49.6 
		55.5,49.6 59.4,49.6 59.4,47.6 61.4,47.6 61.4,45.7 61.4,47.6 65.4,47.6 65.4,45.7 67.3,45.7 67.3,43.7 69.3,43.7 69.3,37.8 
		73.3,37.8 73.3,41.7 75.2,41.7 75.2,39.7 75.2,41.7 81.2,41.7 81.2,39.7 85.1,39.7 85.1,41.7 89.1,41.7 89.1,43.7 91,43.7 
		89.1,43.7 91,43.7 89.1,43.7 91,43.7 89.1,43.7 91,43.7 89.1,43.7 89.1,45.7 85.1,45.7 85.1,47.6 83.1,47.6 83.1,59.5 85.1,59.5 
		83.1,59.5 83.1,57.5 81.2,57.5 81.2,59.5 79.2,59.5 79.2,61.5 81.2,61.5 79.2,61.5 79.2,65.4 73.3,65.4 73.3,63.4 69.3,63.4 
		69.3,61.5 69.3,63.4 69.3,61.5 67.3,61.5 67.3,63.4 67.3,61.5 67.3,63.4 67.3,61.5 67.3,63.4 67.3,61.5 67.3,63.4 65.4,61.5 
		67.3,61.5 65.4,61.5 65.4,63.4 65.4,61.5 	"/>
</g>
<g id="Layer_36">
	<polyline class="st2" points="65.4,61.5 59.4,61.5 59.4,63.4 57.5,63.4 57.5,65.4 59.4,65.4 59.4,67.4 61.4,67.4 59.4,67.4 
		61.4,67.4 61.4,71.3 59.4,71.3 59.4,73.3 57.5,73.3 57.5,75.3 55.5,75.3 55.5,77.2 53.5,77.2 53.5,71.3 47.6,71.3 47.6,73.3 
		45.6,73.3 45.6,69.3 41.7,69.3 41.7,71.3 39.7,71.3 39.7,69.3 39.7,71.3 39.7,69.3 41.7,69.3 41.7,67.4 39.7,67.4 41.7,67.4 
		39.7,67.4 39.7,63.4 41.7,63.4 39.7,63.4 39.7,61.5 41.7,61.5 41.7,59.5 39.7,59.5 39.7,57.5 41.7,57.5 39.7,57.5 41.7,57.5 
		41.7,55.5 43.6,55.5 43.6,53.6 51.5,53.6 51.5,55.5 55.5,55.5 55.5,53.6 53.5,53.6 55.5,53.6 55.5,51.6 57.5,51.6 57.5,49.6 
		55.5,49.6 59.4,49.6 59.4,47.6 61.4,47.6 61.4,45.7 61.4,47.6 65.4,47.6 65.4,45.7 67.3,45.7 67.3,43.7 69.3,43.7 69.3,37.8 
		73.3,37.8 73.3,41.7 75.2,41.7 75.2,39.7 75.2,41.7 81.2,41.7 81.2,39.7 85.1,39.7 85.1,41.7 89.1,41.7 89.1,43.7 91,43.7 
		89.1,43.7 91,43.7 89.1,43.7 91,43.7 89.1,43.7 91,43.7 89.1,43.7 89.1,45.7 85.1,45.7 85.1,47.6 83.1,47.6 83.1,59.5 85.1,59.5 
		83.1,59.5 83.1,57.5 81.2,57.5 81.2,59.5 79.2,59.5 79.2,61.5 81.2,61.5 79.2,61.5 79.2,65.4 73.3,65.4 73.3,63.4 69.3,63.4 
		69.3,61.5 69.3,63.4 69.3,61.5 67.3,61.5 67.3,63.4 67.3,61.5 67.3,63.4 67.3,61.5 67.3,63.4 67.3,61.5 67.3,63.4 65.4,61.5 
		67.3,61.5 65.4,61.5 65.4,63.4 65.4,61.5 	"/>
</g>
<g id="Layer_35">
	<polyline class="st9" points="71.2,132.5 69.2,132.5 69.2,134.5 67.2,134.5 67.3,130.5 61.3,130.5 61.3,132.5 61.3,130.5 
		57.4,130.5 57.4,132.5 57.4,130.5 53.4,130.5 53.4,132.4 49.5,132.4 49.5,130.5 51.5,130.5 51.5,128.5 49.5,128.5 51.5,128.5 
		51.5,120.6 49.5,120.6 49.6,114.7 47.6,114.6 47.6,110.7 49.6,110.7 49.6,106.8 51.6,106.8 51.6,104.8 59.5,104.8 59.5,110.8 
		65.4,110.8 65.4,108.8 69.4,108.8 67.4,108.8 67.4,104.9 73.3,104.9 71.3,104.9 71.4,100.9 69.4,100.9 69.4,102.9 67.4,102.9 
		67.4,100.9 69.4,100.9 69.4,99 73.4,99 73.3,101 75.3,101 75.3,99 75.3,101 77.3,101 77.3,97 79.3,97 77.3,97 79.3,97 79.3,95.1 
		77.3,95.1 79.3,95.1 77.3,95.1 79.3,95.1 77.3,95.1 79.3,95.1 77.3,95.1 81.3,95.1 81.3,97.1 83.2,97.1 83.2,99 85.2,99 85.2,101 
		83.2,101 83.2,103 85.2,105 85.2,106.9 83.2,106.9 85.2,106.9 85.1,108.9 87.1,108.9 87.1,110.9 89.1,110.9 89.1,112.9 87.1,112.9 
		87.1,110.9 87.1,112.9 87.1,110.9 85.1,110.9 85.1,112.9 83.1,112.9 83.1,114.8 85.1,114.8 83.1,114.8 85.1,114.8 83.1,114.8 
		83.1,118.8 85.1,118.8 83.1,118.8 83.1,120.8 81.1,120.7 81.1,122.7 83.1,122.7 83.1,124.7 85.1,124.7 85.1,126.7 83.1,126.7 
		85.1,126.7 85,128.7 83.1,128.6 83.1,130.6 81.1,130.6 81.1,132.6 79.1,132.6 79.1,138.5 79.1,136.5 77.1,136.5 77.1,132.6 
		71.2,132.5 	"/>
</g>
<g id="Layer_34">
	<polyline class="st2" points="71.3,132.5 69.3,132.5 69.3,134.5 67.3,134.5 67.3,130.5 61.4,130.5 61.4,132.5 61.4,130.5 
		57.5,130.5 57.5,132.5 57.5,130.5 53.5,130.5 53.5,132.5 49.6,132.5 49.6,130.5 51.5,130.5 51.5,128.6 49.6,128.6 51.5,128.6 
		51.5,120.7 49.6,120.7 49.6,114.8 47.6,114.8 47.6,110.8 49.6,110.8 49.6,106.9 51.5,106.9 51.5,104.9 59.4,104.9 59.4,110.8 
		65.4,110.8 65.4,108.8 69.3,108.8 67.3,108.8 67.3,104.9 73.3,104.9 71.3,104.9 71.3,100.9 69.3,100.9 69.3,102.9 67.3,102.9 
		67.3,100.9 69.3,100.9 69.3,99 73.3,99 73.3,100.9 75.2,100.9 75.2,99 75.2,100.9 77.2,100.9 77.2,97 79.2,97 77.2,97 79.2,97 
		79.2,95 77.2,95 79.2,95 77.2,95 79.2,95 77.2,95 79.2,95 77.2,95 81.2,95 81.2,97 83.1,97 83.1,99 85.1,99 85.1,100.9 83.1,100.9 
		83.1,102.9 85.1,104.9 85.1,106.9 83.1,106.9 85.1,106.9 85.1,108.8 87.1,108.8 87.1,110.8 89.1,110.8 89.1,112.8 87.1,112.8 
		87.1,110.8 87.1,112.8 87.1,110.8 85.1,110.8 85.1,112.8 83.1,112.8 83.1,114.8 85.1,114.8 83.1,114.8 85.1,114.8 83.1,114.8 
		83.1,118.7 85.1,118.7 83.1,118.7 83.1,120.7 81.2,120.7 81.2,122.7 83.1,122.7 83.1,124.6 85.1,124.6 85.1,126.6 83.1,126.6 
		85.1,126.6 85.1,128.6 83.1,128.6 83.1,130.5 81.2,130.5 81.2,132.5 79.2,132.5 79.2,138.4 79.2,136.5 77.2,136.5 77.2,132.5 
		71.3,132.5 	"/>
</g>
<g id="Layer_33">
	<polyline class="st4" points="89.1,100.9 87.1,100.9 89.1,100.9 89.1,99 87.1,99 89.1,99 87.1,99 89.1,99 89.1,97 93,97 93,99 
		95,99 93,99 93,100.9 91,100.9 93,100.9 91,100.9 91,102.9 89.1,102.9 91,102.9 89.1,102.9 89.1,100.9 	"/>
</g>
<g id="Layer_32">
	<polyline class="st2" points="89.1,100.9 87.1,100.9 89.1,100.9 89.1,99 87.1,99 89.1,99 87.1,99 89.1,99 89.1,97 93,97 93,99 
		95,99 93,99 93,100.9 91,100.9 93,100.9 91,100.9 91,102.9 89.1,102.9 91,102.9 89.1,102.9 89.1,100.9 	"/>
</g>
<g id="Layer_31">
	<polyline class="st10" points="69.3,73.3 69.3,75.3 71.3,75.3 69.3,75.3 73.3,75.3 73.3,77.2 75.2,77.2 73.3,77.2 73.3,79.2 
		71.3,79.2 71.3,83.2 67.3,83.2 69.3,83.2 69.3,85.1 67.3,85.1 67.3,87.1 63.4,87.1 59.4,83.2 57.5,83.2 57.5,85.1 55.5,85.1 
		55.5,87.1 53.5,87.1 53.5,85.1 51.5,85.1 51.5,87.1 49.6,87.1 49.6,85.1 47.6,85.1 47.6,87.1 43.6,87.1 45.6,87.1 45.6,83.2 
		43.6,85.1 43.6,83.2 37.7,83.2 37.7,81.2 39.7,81.2 39.7,75.3 41.7,75.3 39.7,75.3 39.7,69.3 39.7,71.3 41.7,71.3 41.7,69.3 
		45.6,69.3 45.6,73.3 47.6,73.3 47.6,71.3 53.5,71.3 53.5,77.2 55.5,77.2 55.5,75.3 59.4,75.3 57.5,75.3 59.4,75.3 59.4,77.2 
		59.4,75.3 67.3,75.3 67.3,73.3 69.3,73.3 	"/>
</g>
<g id="Layer_30">
	<polyline class="st2" points="69.3,73.3 69.3,75.3 71.3,75.3 69.3,75.3 73.3,75.3 73.3,77.2 75.2,77.2 73.3,77.2 73.3,79.2 
		71.3,79.2 71.3,83.2 67.3,83.2 69.3,83.2 69.3,85.1 67.3,85.1 67.3,87.1 63.4,87.1 59.4,83.2 57.5,83.2 57.5,85.1 55.5,85.1 
		55.5,87.1 53.5,87.1 53.5,85.1 51.5,85.1 51.5,87.1 49.6,87.1 49.6,85.1 47.6,85.1 47.6,87.1 43.6,87.1 45.6,87.1 45.6,83.2 
		43.6,85.1 43.6,83.2 37.7,83.2 37.7,81.2 39.7,81.2 39.7,75.3 41.7,75.3 39.7,75.3 39.7,69.3 39.7,71.3 41.7,71.3 41.7,69.3 
		45.6,69.3 45.6,73.3 47.6,73.3 47.6,71.3 53.5,71.3 53.5,77.2 55.5,77.2 55.5,75.3 59.4,75.3 57.5,75.3 59.4,75.3 59.4,77.2 
		59.4,75.3 67.3,75.3 67.3,73.3 69.3,73.3 	"/>
</g>
<g id="Layer_29">
	<polyline class="st11" points="6.1,95 8.1,93 6.1,93 6.1,91.1 8.1,91.1 8.1,89.1 8.1,91.1 10.1,91.1 10.1,89.1 12.1,89.1 
		12.1,87.1 14,87.1 12.1,87.1 14,87.1 12.1,87.1 14,87.1 14,85.1 14,87.1 16,87.1 16,89.1 18,89.1 18,91.1 20,91.1 20,93 20,91.1 
		21.9,91.1 21.9,95 23.9,95 21.9,95 21.9,97 20,97 20,99 16,99 16,97 10.1,97 10.1,95 10.1,97 10.1,95 10.1,97 10.1,95 10.1,97 
		6.1,97 6.1,95 8.1,95 6.1,95 	"/>
</g>
<g id="Layer_28">
	<polyline class="st2" points="6.1,95 8.1,93 6.1,93 6.1,91.1 8.1,91.1 8.1,89.1 8.1,91.1 10.1,91.1 10.1,89.1 12.1,89.1 12.1,87.1 
		14,87.1 12.1,87.1 14,87.1 12.1,87.1 14,87.1 14,85.1 14,87.1 16,87.1 16,89.1 18,89.1 18,91.1 20,91.1 20,93 20,91.1 21.9,91.1 
		21.9,95 23.9,95 21.9,95 21.9,97 20,97 20,99 16,99 16,97 10.1,97 10.1,95 10.1,97 10.1,95 10.1,97 10.1,95 10.1,97 6.1,97 6.1,95 
		8.1,95 6.1,95 	"/>
</g>
<g id="Kingston_upon_Hull_East">
    <a xlink:href="#">
	<polyline class="st12" points="77.2,83.2 75.2,83.2 75.2,81.2 77.2,81.2 75.2,81.2 77.2,81.2 77.2,79.2 75.2,79.2 77.2,79.2 
		75.2,79.2 75.2,77.2 75.2,79.2 75.2,77.2 81.2,77.2 81.2,83.2 79.2,83.2 79.2,81.2 77.2,81.2 77.2,83.2 	"/>
    </a>
</g>
<g id="Layer_26">
</g>
    
<g id="Kingston_upon_Hull_North">
    <a xlink:href="#2">
	<polyline class="st13" points="79.2,77.2 75.2,77.2 75.2,79.2 75.2,77.2 75.2,79.2 77.2,79.2 75.2,79.2 75.2,81.2 73.3,81.2 
		73.3,79.2 71.3,79.2 73.3,79.2 73.3,77.2 75.2,77.2 73.3,77.2 73.3,75.3 77.2,75.3 77.2,77.2 79.2,77.2 	"/>
    </a>
</g>
<g id="Layer_24">
</g>
<g id="Kingston_upon_Hull_West_and_Hessle">
    <a xlink:href="#3">
	<polyline class="st13" points="71.3,83.2 71.3,85.1 69.3,85.1 69.3,83.2 67.3,83.2 71.3,83.2 71.3,79.2 73.3,79.2 73.3,81.2 
		75.2,81.2 75.2,79.2 77.2,79.2 77.2,81.2 75.2,81.2 77.2,81.2 75.2,81.2 75.2,83.2 73.3,83.2 73.3,85.1 71.3,85.1 71.3,83.2 	"/>
    </a>
</g>
<g id="Layer_22">
</g>
<g id="Layer_21">
	<polyline class="st14" points="114.7,136.5 112.7,138.4 110.8,138.4 110.8,136.5 110.8,138.4 104.8,138.4 104.8,142.4 106.8,142.4 
		96.9,142.4 96.9,144.4 95,144.4 95,142.4 95,144.4 93,144.4 93,148.3 91,148.3 93,148.3 91,148.3 91,152.3 91,150.3 89.1,150.3 
		91,150.3 89.1,150.3 89.1,152.3 89.1,150.3 87.1,150.3 87.1,148.3 85.1,148.3 85.1,144.4 83.1,144.4 85.1,144.4 83.1,144.4 
		83.1,140.4 81.2,140.4 81.2,138.4 79.2,138.4 79.2,132.5 81.2,132.5 81.2,130.5 83.1,130.5 83.1,128.6 85.1,128.6 85.1,126.6 
		83.1,126.6 85.1,126.6 85.1,124.6 83.1,124.6 83.1,122.7 81.2,122.7 81.2,120.7 83.1,120.7 83.1,118.7 85.1,118.7 83.1,118.7 
		83.1,114.8 85.1,114.8 83.1,114.8 85.1,114.8 83.1,114.8 83.1,112.8 85.1,112.8 85.1,110.8 87.1,110.8 87.1,112.8 87.1,110.8 
		87.1,112.8 89.1,112.8 91,110.8 91,106.9 93,106.9 93,102.9 95,102.9 95,104.9 95,102.9 98.9,102.9 98.9,100.9 98.9,102.9 
		102.9,102.9 100.9,102.9 102.9,102.9 102.9,104.9 104.8,104.9 102.9,104.9 106.8,104.9 106.8,108.8 108.8,108.8 108.8,112.8 
		110.8,112.8 110.8,116.7 112.7,116.7 112.7,122.7 114.7,122.7 114.7,126.6 114.7,124.6 114.7,126.6 116.7,126.6 116.7,128.6 
		116.7,126.6 116.7,130.5 118.7,130.5 118.7,134.5 116.7,134.5 116.7,132.5 116.7,134.5 114.7,134.5 116.7,134.5 114.7,134.5 
		114.7,136.5 114.7,134.5 114.7,136.5 	"/>
</g>
<g id="Layer_20">
	<polyline class="st2" points="114.7,136.5 112.7,138.4 110.8,138.4 110.8,136.5 110.8,138.4 104.8,138.4 104.8,142.4 106.8,142.4 
		96.9,142.4 96.9,144.4 95,144.4 95,142.4 95,144.4 93,144.4 93,148.3 91,148.3 93,148.3 91,148.3 91,152.3 91,150.3 89.1,150.3 
		91,150.3 89.1,150.3 89.1,152.3 89.1,150.3 87.1,150.3 87.1,148.3 85.1,148.3 85.1,144.4 83.1,144.4 85.1,144.4 83.1,144.4 
		83.1,140.4 81.2,140.4 81.2,138.4 79.2,138.4 79.2,132.5 81.2,132.5 81.2,130.5 83.1,130.5 83.1,128.6 85.1,128.6 85.1,126.6 
		83.1,126.6 85.1,126.6 85.1,124.6 83.1,124.6 83.1,122.7 81.2,122.7 81.2,120.7 83.1,120.7 83.1,118.7 85.1,118.7 83.1,118.7 
		83.1,114.8 85.1,114.8 83.1,114.8 85.1,114.8 83.1,114.8 83.1,112.8 85.1,112.8 85.1,110.8 87.1,110.8 87.1,112.8 87.1,110.8 
		87.1,112.8 89.1,112.8 91,110.8 91,106.9 93,106.9 93,102.9 95,102.9 95,104.9 95,102.9 98.9,102.9 98.9,100.9 98.9,102.9 
		102.9,102.9 100.9,102.9 102.9,102.9 102.9,104.9 104.8,104.9 102.9,104.9 106.8,104.9 106.8,108.8 108.8,108.8 108.8,112.8 
		110.8,112.8 110.8,116.7 112.7,116.7 112.7,122.7 114.7,122.7 114.7,126.6 114.7,124.6 114.7,126.6 116.7,126.6 116.7,128.6 
		116.7,126.6 116.7,130.5 118.7,130.5 118.7,134.5 116.7,134.5 116.7,132.5 116.7,134.5 114.7,134.5 116.7,134.5 114.7,134.5 
		114.7,136.5 114.7,134.5 114.7,136.5 	"/>
</g>
<g id="Layer_19">
	<polyline class="st15" points="21.9,91.1 20,91.1 20,93 20,91.1 18,91.1 18,89.1 16,89.1 16,87.1 14,87.1 14,85.1 14,87.1 
		12.1,87.1 14,87.1 12.1,87.1 14,87.1 12.1,87.1 12.1,89.1 10.1,89.1 10.1,91.1 8.1,91.1 8.1,89.1 10.1,89.1 8.1,89.1 10.1,87.1 
		8.1,87.1 8.1,85.1 14,85.1 14,83.2 20,83.2 20,85.1 23.9,85.1 23.9,87.1 21.9,87.1 21.9,91.1 	"/>
</g>
<g id="Layer_18">
	<polyline class="st2" points="21.9,91.1 20,91.1 20,93 20,91.1 18,91.1 18,89.1 16,89.1 16,87.1 14,87.1 14,85.1 14,87.1 
		12.1,87.1 14,87.1 12.1,87.1 14,87.1 12.1,87.1 12.1,89.1 10.1,89.1 10.1,91.1 8.1,91.1 8.1,89.1 10.1,89.1 8.1,89.1 10.1,87.1 
		8.1,87.1 8.1,85.1 14,85.1 14,83.2 20,83.2 20,85.1 23.9,85.1 23.9,87.1 21.9,87.1 21.9,91.1 	"/>
</g>
<g id="Layer_17">
	<polyline class="st16" points="21.9,126.6 20,126.6 20,122.7 20,124.6 18,124.6 18,122.7 18,124.6 18,120.7 16,122.7 16,120.7 
		14,120.7 14,118.7 16,118.7 16,114.8 21.9,114.8 21.9,112.8 27.9,112.8 27.9,116.7 29.8,116.7 29.8,114.8 29.8,116.7 27.9,118.7 
		29.8,118.7 27.9,118.7 27.9,120.7 27.9,118.7 27.9,124.6 25.9,124.6 25.9,126.6 21.9,126.6 	"/>
</g>
<g id="Layer_16">
	<polyline class="st2" points="21.9,126.6 20,126.6 20,122.7 20,124.6 18,124.6 18,122.7 18,124.6 18,120.7 16,122.7 16,120.7 
		14,120.7 14,118.7 16,118.7 16,114.8 21.9,114.8 21.9,112.8 27.9,112.8 27.9,116.7 29.8,116.7 29.8,114.8 29.8,116.7 27.9,118.7 
		29.8,118.7 27.9,118.7 27.9,120.7 27.9,118.7 27.9,124.6 25.9,124.6 25.9,126.6 21.9,126.6 	"/>
</g>
<g id="Layer_15">
	<polyline class="st17" points="59.4,27.9 57.5,27.9 59.4,27.9 59.4,23.9 61.4,23.9 59.4,23.9 59.4,22 57.5,22 57.5,18 55.5,20 
		55.5,18 53.5,18 53.5,20 45.6,20 47.6,20 45.6,20 45.6,18 41.7,18 41.7,16 33.8,16 33.8,14.1 31.8,14.1 31.8,16 31.8,10.1 
		37.7,10.1 35.7,8.1 33.8,8.1 33.8,6.2 37.7,6.2 37.7,8.1 39.7,8.1 39.7,6.2 43.6,6.2 43.6,8.1 43.6,2.2 45.6,2.2 45.6,0.3 
		49.6,0.3 47.6,0.3 49.6,0.3 47.6,0.3 49.6,0.3 49.6,2.2 53.5,2.2 51.5,2.2 53.5,2.2 53.5,4.2 55.5,4.2 53.5,4.2 53.5,6.2 59.4,6.2 
		59.4,8.1 61.4,8.1 61.4,10.1 63.4,10.1 63.4,14.1 65.4,14.1 65.4,16 67.3,16 67.3,20 69.3,20 69.3,25.9 69.3,23.9 69.3,25.9 
		71.3,25.9 71.3,23.9 71.3,25.9 71.3,23.9 71.3,25.9 71.3,23.9 71.3,29.9 73.3,29.9 73.3,31.8 77.2,31.8 75.2,31.8 77.2,31.8 
		75.2,31.8 77.2,31.8 77.2,33.8 67.3,33.8 67.3,35.8 57.5,35.8 59.4,35.8 59.4,29.9 57.5,29.9 57.5,27.9 59.4,27.9 	"/>
</g>
<g id="Layer_14">
	<polyline class="st2" points="59.4,27.9 57.5,27.9 59.4,27.9 59.4,23.9 61.4,23.9 59.4,23.9 59.4,22 57.5,22 57.5,18 55.5,20 
		55.5,18 53.5,18 53.5,20 45.6,20 47.6,20 45.6,20 45.6,18 41.7,18 41.7,16 33.8,16 33.8,14.1 31.8,14.1 31.8,16 31.8,10.1 
		37.7,10.1 35.7,8.1 33.8,8.1 33.8,6.2 37.7,6.2 37.7,8.1 39.7,8.1 39.7,6.2 43.6,6.2 43.6,8.1 43.6,2.2 45.6,2.2 45.6,0.3 
		49.6,0.3 47.6,0.3 49.6,0.3 47.6,0.3 49.6,0.3 49.6,2.2 53.5,2.2 51.5,2.2 53.5,2.2 53.5,4.2 55.5,4.2 53.5,4.2 53.5,6.2 59.4,6.2 
		59.4,8.1 61.4,8.1 61.4,10.1 63.4,10.1 63.4,14.1 65.4,14.1 65.4,16 67.3,16 67.3,20 69.3,20 69.3,25.9 69.3,23.9 69.3,25.9 
		71.3,25.9 71.3,23.9 71.3,25.9 71.3,23.9 71.3,25.9 71.3,23.9 71.3,29.9 73.3,29.9 73.3,31.8 77.2,31.8 75.2,31.8 77.2,31.8 
		75.2,31.8 77.2,31.8 77.2,33.8 67.3,33.8 67.3,35.8 57.5,35.8 59.4,35.8 59.4,29.9 57.5,29.9 57.5,27.9 59.4,27.9 	"/>
</g>
<g id="Layer_13">
	<polyline class="st18" points="59.4,110.8 59.4,104.9 51.5,104.9 51.5,100.9 55.5,100.9 55.5,95 59.4,95 59.4,97 61.4,97 
		61.4,100.9 67.3,100.9 67.3,102.9 69.3,102.9 69.3,100.9 71.3,100.9 71.3,104.9 73.3,104.9 67.3,104.9 67.3,108.8 69.3,108.8 
		65.4,108.8 65.4,110.8 59.4,110.8 	"/>
</g>
<g id="Layer_12">
	<polyline class="st2" points="59.4,110.8 59.4,104.9 51.5,104.9 51.5,100.9 55.5,100.9 55.5,95 59.4,95 59.4,97 61.4,97 
		61.4,100.9 67.3,100.9 67.3,102.9 69.3,102.9 69.3,100.9 71.3,100.9 71.3,104.9 73.3,104.9 67.3,104.9 67.3,108.8 69.3,108.8 
		65.4,108.8 65.4,110.8 59.4,110.8 	"/>
</g>
<g id="Layer_11">
	<polyline class="st19" points="25.9,93 23.9,93 23.9,95 21.9,95 21.9,87.1 23.9,87.1 23.9,85.1 20,85.1 20,83.2 18,83.2 18,81.2 
		20,81.2 18,81.2 20,81.2 20,79.2 18,79.2 18,73.3 16,73.3 16,71.3 18,71.3 18,63.4 16,63.4 16,61.5 14,61.5 14,63.4 14,61.5 
		14,63.4 14,61.5 12.1,61.5 12.1,63.4 10.1,63.4 10.1,65.4 4.2,65.4 4.2,67.4 4.2,65.4 2.2,65.4 2.2,67.4 2.2,65.4 0.2,65.4 
		2.2,65.4 0.2,65.4 0.2,63.4 4.2,63.4 2.2,63.4 4.2,63.4 4.2,61.5 6.1,61.5 6.1,59.5 8.1,59.5 8.1,57.5 6.1,57.5 10.1,57.5 
		10.1,55.5 12.1,55.5 12.1,53.6 14,53.6 14,51.6 16,51.6 16,49.6 16,51.6 18,51.6 18,49.6 20,49.6 20,51.6 18,51.6 20,51.6 20,53.6 
		23.9,53.6 23.9,55.5 25.9,55.5 25.9,57.5 25.9,55.5 25.9,57.5 25.9,55.5 23.9,55.5 23.9,57.5 23.9,55.5 23.9,57.5 25.9,57.5 
		23.9,57.5 23.9,59.5 21.9,59.5 23.9,59.5 21.9,59.5 23.9,59.5 23.9,65.4 25.9,65.4 25.9,67.4 29.8,67.4 29.8,69.3 29.8,67.4 
		31.8,67.4 31.8,69.3 33.8,69.3 33.8,67.4 35.7,67.4 35.7,69.3 37.7,69.3 37.7,67.4 39.7,67.4 39.7,69.3 39.7,67.4 39.7,69.3 
		41.7,69.3 41.7,67.4 41.7,69.3 39.7,69.3 39.7,75.3 41.7,75.3 39.7,75.3 39.7,81.2 37.7,81.2 37.7,83.2 41.7,83.2 41.7,85.1 
		39.7,85.1 39.7,87.1 37.7,87.1 37.7,85.1 37.7,87.1 33.8,87.1 33.8,85.1 31.8,85.1 31.8,89.1 29.8,89.1 31.8,89.1 31.8,91.1 
		33.8,91.1 29.8,91.1 29.8,93 29.8,91.1 29.8,93 25.9,93 	"/>
</g>
<g id="Layer_10">
	<polyline class="st2" points="25.9,93 23.9,93 23.9,95 21.9,95 21.9,87.1 23.9,87.1 23.9,85.1 20,85.1 20,83.2 18,83.2 18,81.2 
		20,81.2 18,81.2 20,81.2 20,79.2 18,79.2 18,73.3 16,73.3 16,71.3 18,71.3 18,63.4 16,63.4 16,61.5 14,61.5 14,63.4 14,61.5 
		14,63.4 14,61.5 12.1,61.5 12.1,63.4 10.1,63.4 10.1,65.4 4.2,65.4 4.2,67.4 4.2,65.4 2.2,65.4 2.2,67.4 2.2,65.4 0.2,65.4 
		2.2,65.4 0.2,65.4 0.2,63.4 4.2,63.4 2.2,63.4 4.2,63.4 4.2,61.5 6.1,61.5 6.1,59.5 8.1,59.5 8.1,57.5 6.1,57.5 10.1,57.5 
		10.1,55.5 12.1,55.5 12.1,53.6 14,53.6 14,51.6 16,51.6 16,49.6 16,51.6 18,51.6 18,49.6 20,49.6 20,51.6 18,51.6 20,51.6 20,53.6 
		23.9,53.6 23.9,55.5 25.9,55.5 25.9,57.5 25.9,55.5 25.9,57.5 25.9,55.5 23.9,55.5 23.9,57.5 23.9,55.5 23.9,57.5 25.9,57.5 
		23.9,57.5 23.9,59.5 21.9,59.5 23.9,59.5 21.9,59.5 23.9,59.5 23.9,65.4 25.9,65.4 25.9,67.4 29.8,67.4 29.8,69.3 29.8,67.4 
		31.8,67.4 31.8,69.3 33.8,69.3 33.8,67.4 35.7,67.4 35.7,69.3 37.7,69.3 37.7,67.4 39.7,67.4 39.7,69.3 39.7,67.4 39.7,69.3 
		41.7,69.3 41.7,67.4 41.7,69.3 39.7,69.3 39.7,75.3 41.7,75.3 39.7,75.3 39.7,81.2 37.7,81.2 37.7,83.2 41.7,83.2 41.7,85.1 
		39.7,85.1 39.7,87.1 37.7,87.1 37.7,85.1 37.7,87.1 33.8,87.1 33.8,85.1 31.8,85.1 31.8,89.1 29.8,89.1 31.8,89.1 31.8,91.1 
		33.8,91.1 29.8,91.1 29.8,93 29.8,91.1 29.8,93 25.9,93 	"/>
</g>
<g id="Layer_9">
	<polyline class="st14" points="59.4,35.8 67.3,35.8 67.3,33.8 77.2,33.8 77.2,31.8 77.2,33.8 79.2,33.8 77.2,33.8 77.2,35.8 
		79.2,35.8 79.2,37.8 81.2,37.8 81.2,39.7 83.1,39.7 81.2,39.7 81.2,41.7 75.2,41.7 75.2,39.7 75.2,41.7 73.3,41.7 73.3,37.8 
		69.3,37.8 69.3,43.7 67.3,43.7 67.3,45.7 65.4,45.7 65.4,47.6 61.4,47.6 61.4,45.7 61.4,47.6 59.4,47.6 59.4,49.6 55.5,49.6 
		57.5,49.6 57.5,51.6 55.5,51.6 55.5,53.6 53.5,53.6 55.5,53.6 55.5,55.5 51.5,55.5 51.5,53.6 43.6,53.6 43.6,55.5 41.7,55.5 
		41.7,57.5 35.7,57.5 37.7,57.5 37.7,51.6 29.8,51.6 29.8,53.6 27.9,53.6 27.9,57.5 25.9,57.5 25.9,55.5 23.9,55.5 23.9,53.6 
		20,53.6 20,51.6 18,51.6 20,51.6 20,49.6 18,49.6 18,47.6 16,47.6 16,45.7 16,47.6 16,39.7 12.1,39.7 12.1,37.8 10.1,37.8 
		10.1,31.8 8.1,31.8 8.1,27.9 6.1,27.9 6.1,25.9 10.1,25.9 10.1,23.9 12.1,23.9 12.1,25.9 12.1,23.9 16,23.9 16,25.9 21.9,25.9 
		20,25.9 21.9,25.9 21.9,23.9 20,23.9 20,20 21.9,20 21.9,18 23.9,18 23.9,20 23.9,18 25.9,18 25.9,22 27.9,22 27.9,23.9 29.8,23.9 
		29.8,22 31.8,20 31.8,16 29.8,16 31.8,16 31.8,14.1 33.8,14.1 33.8,16 41.7,16 41.7,18 45.6,18 45.6,20 47.6,20 45.6,20 53.5,20 
		53.5,18 55.5,18 55.5,20 57.5,18 57.5,22 59.4,22 59.4,23.9 61.4,23.9 59.4,23.9 59.4,27.9 57.5,27.9 59.4,27.9 57.5,27.9 
		57.5,29.9 59.4,29.9 59.4,35.8 57.5,35.8 59.4,35.8 	"/>
</g>
<g id="Layer_8">
	<polyline class="st2" points="59.4,35.8 67.3,35.8 67.3,33.8 77.2,33.8 77.2,31.8 77.2,33.8 79.2,33.8 77.2,33.8 77.2,35.8 
		79.2,35.8 79.2,37.8 81.2,37.8 81.2,39.7 83.1,39.7 81.2,39.7 81.2,41.7 75.2,41.7 75.2,39.7 75.2,41.7 73.3,41.7 73.3,37.8 
		69.3,37.8 69.3,43.7 67.3,43.7 67.3,45.7 65.4,45.7 65.4,47.6 61.4,47.6 61.4,45.7 61.4,47.6 59.4,47.6 59.4,49.6 55.5,49.6 
		57.5,49.6 57.5,51.6 55.5,51.6 55.5,53.6 53.5,53.6 55.5,53.6 55.5,55.5 51.5,55.5 51.5,53.6 43.6,53.6 43.6,55.5 41.7,55.5 
		41.7,57.5 35.7,57.5 37.7,57.5 37.7,51.6 29.8,51.6 29.8,53.6 27.9,53.6 27.9,57.5 25.9,57.5 25.9,55.5 23.9,55.5 23.9,53.6 
		20,53.6 20,51.6 18,51.6 20,51.6 20,49.6 18,49.6 18,47.6 16,47.6 16,45.7 16,47.6 16,39.7 12.1,39.7 12.1,37.8 10.1,37.8 
		10.1,31.8 8.1,31.8 8.1,27.9 6.1,27.9 6.1,25.9 10.1,25.9 10.1,23.9 12.1,23.9 12.1,25.9 12.1,23.9 16,23.9 16,25.9 21.9,25.9 
		20,25.9 21.9,25.9 21.9,23.9 20,23.9 20,20 21.9,20 21.9,18 23.9,18 23.9,20 23.9,18 25.9,18 25.9,22 27.9,22 27.9,23.9 29.8,23.9 
		29.8,22 31.8,20 31.8,16 29.8,16 31.8,16 31.8,14.1 33.8,14.1 33.8,16 41.7,16 41.7,18 45.6,18 45.6,20 47.6,20 45.6,20 53.5,20 
		53.5,18 55.5,18 55.5,20 57.5,18 57.5,22 59.4,22 59.4,23.9 61.4,23.9 59.4,23.9 59.4,27.9 57.5,27.9 59.4,27.9 57.5,27.9 
		57.5,29.9 59.4,29.9 59.4,35.8 57.5,35.8 59.4,35.8 	"/>
</g>
<g id="Layer_7">
	<polyline class="st20" points="29.8,61.5 27.9,61.5 27.9,63.4 27.9,59.5 31.8,59.5 29.8,59.5 31.8,59.5 29.8,59.5 31.8,59.5 
		31.8,57.5 31.8,59.5 33.8,59.5 33.8,61.5 31.8,61.5 31.8,63.4 29.8,63.4 29.8,61.5 	"/>
</g>
<g id="Layer_6">
	<polyline class="st2" points="29.8,61.5 27.9,61.5 27.9,63.4 27.9,59.5 31.8,59.5 29.8,59.5 31.8,59.5 29.8,59.5 31.8,59.5 
		31.8,57.5 31.8,59.5 33.8,59.5 33.8,61.5 31.8,61.5 31.8,63.4 29.8,63.4 29.8,61.5 	"/>
</g>
<g id="Layer_5">
	<polyline class="st21" points="31.8,69.3 31.8,67.4 29.8,67.4 29.8,69.3 29.8,67.4 25.9,67.4 25.9,65.4 23.9,65.4 23.9,59.5 
		21.9,59.5 23.9,59.5 21.9,59.5 23.9,59.5 23.9,57.5 25.9,57.5 23.9,57.5 23.9,55.5 23.9,57.5 23.9,55.5 25.9,55.5 25.9,57.5 
		25.9,55.5 25.9,57.5 25.9,55.5 25.9,57.5 27.9,57.5 27.9,53.6 29.8,53.6 29.8,51.6 37.7,51.6 37.7,57.5 35.7,57.5 41.7,57.5 
		39.7,57.5 39.7,59.5 41.7,59.5 41.7,61.5 39.7,61.5 39.7,63.4 41.7,63.4 39.7,63.4 39.7,67.4 41.7,67.4 39.7,67.4 41.7,67.4 
		41.7,69.3 39.7,69.3 39.7,67.4 39.7,69.3 39.7,67.4 37.7,67.4 37.7,69.3 35.7,69.3 35.7,67.4 33.8,67.4 33.8,69.3 31.8,69.3 	"/>
</g>
<g id="Layer_4">
	<polyline class="st2" points="31.8,69.3 31.8,67.4 29.8,67.4 29.8,69.3 29.8,67.4 25.9,67.4 25.9,65.4 23.9,65.4 23.9,59.5 
		21.9,59.5 23.9,59.5 21.9,59.5 23.9,59.5 23.9,57.5 25.9,57.5 23.9,57.5 23.9,55.5 23.9,57.5 23.9,55.5 25.9,55.5 25.9,57.5 
		25.9,55.5 25.9,57.5 25.9,55.5 25.9,57.5 27.9,57.5 27.9,53.6 29.8,53.6 29.8,51.6 37.7,51.6 37.7,57.5 35.7,57.5 41.7,57.5 
		39.7,57.5 39.7,59.5 41.7,59.5 41.7,61.5 39.7,61.5 39.7,63.4 41.7,63.4 39.7,63.4 39.7,67.4 41.7,67.4 39.7,67.4 41.7,67.4 
		41.7,69.3 39.7,69.3 39.7,67.4 39.7,69.3 39.7,67.4 37.7,67.4 37.7,69.3 35.7,69.3 35.7,67.4 33.8,67.4 33.8,69.3 31.8,69.3 	"/>
</g>
<g id="Layer_3">
	<polyline class="st21" points="29.8,63.4 31.8,63.4 31.8,61.5 33.8,61.5 33.8,59.5 31.8,59.5 31.8,57.5 31.8,59.5 29.8,59.5 
		31.8,59.5 29.8,59.5 31.8,59.5 27.9,59.5 27.9,63.4 27.9,61.5 29.8,61.5 29.8,63.4 	"/>
</g>
<g id="Layer_2">
	<polyline class="st2" points="29.8,63.4 31.8,63.4 31.8,61.5 33.8,61.5 33.8,59.5 31.8,59.5 31.8,57.5 31.8,59.5 29.8,59.5 
		31.8,59.5 29.8,59.5 31.8,59.5 27.9,59.5 27.9,63.4 27.9,61.5 29.8,61.5 29.8,63.4 	"/>
</g>
</svg>
