<?xml version="1.0" encoding="utf-8"?>
<!-- Generator: Adobe Illustrator 24.1.2, SVG Export Plug-In . SVG Version: 6.00 Build 0)  -->
<svg version="1.1" xmlns="http://www.w3.org/2000/svg" xmlns:xlink="http://www.w3.org/1999/xlink" x="0px" y="0px"
	 viewBox="0 0 70 70" style="enable-background:new 0 0 70 70;" xml:space="preserve">
<style type="text/css">
    path:hover {#eee}
	.st0{fill:#9CA4FC;}
	.st1{fill:#D2F4EF;stroke:#000000;stroke-width:0.2;stroke-miterlimit:10;}
	.st2{fill:none;stroke:#000000;stroke-width:0.2;}
	.st3{fill:#7CDFD0;stroke:#000000;stroke-width:0.2;stroke-miterlimit:10;}
	.st4{fill:#FEFFFF;stroke:#000000;stroke-width:0.2;stroke-miterlimit:10;}
	.st5{fill:#FCFFFE;stroke:#000000;stroke-width:0.2;stroke-miterlimit:10;}
	.st6{fill:#FDFFFE;stroke:#000000;stroke-width:0.2;stroke-miterlimit:10;}
	.st7{fill:#E3F8F5;stroke:#000000;stroke-width:0.2;stroke-miterlimit:10;}
	.st8{fill:#F6FDFC;stroke:#000000;stroke-width:0.2;stroke-miterlimit:10;}
	.st9{fill:#EFFBFA;stroke:#000000;stroke-width:0.2;stroke-miterlimit:10;}
    .st9a{fill:#EFFBFA;stroke:#000000;stroke-width:0;stroke-miterlimit:10;}
	.st10{fill:#44D1BC;stroke:#000000;stroke-width:0.2;stroke-miterlimit:10;}
	.st11{fill:#F7FDFC;stroke:#000000;stroke-width:0.2;stroke-miterlimit:10;}
	.st12{fill:#03C1A4;stroke:#000000;stroke-width:0.2;stroke-miterlimit:10;}
	.st13{fill:#04C1A5;stroke:#000000;stroke-width:0.2;stroke-miterlimit:10;}
	.st14{fill:#EDFBF9;stroke:#000000;stroke-width:0.2;stroke-miterlimit:10;}
	.st15{fill:#E5F9F6;stroke:#000000;stroke-width:0.2;stroke-miterlimit:10;}
	.st16{fill:#E0F8F4;stroke:#000000;stroke-width:0.2;stroke-miterlimit:10;}
	.st17{fill:#FBFEFE;stroke:#000000;stroke-width:0.2;stroke-miterlimit:10;}
	.st18{fill:#FDFFFF;stroke:#000000;stroke-width:0.2;stroke-miterlimit:10;}
	.st19{fill:#E9FAF7;stroke:#000000;stroke-width:0.2;stroke-miterlimit:10;}
	.st20{fill:#7ADECF;stroke:#000000;stroke-width:0.2;stroke-miterlimit:10;}
	.st21{fill:#75DDCE;stroke:#000000;stroke-width:0.2;stroke-miterlimit:10;}
    .response{fill:#EABBC6;stroke:#000000;stroke-width:0.2;stroke-miterlimit:10;}
    .st12h{fill:#03C1A4;stroke:#000000;stroke-width:0.2;stroke-miterlimit:10;}
	.st13h{fill:#04C1A5;stroke:#000000;stroke-width:0.2;stroke-miterlimit:10;}
</style>
<g id="Layer_51">
	<polygon class="st0" points="77.87,-40.53 77.87,90.4 74.92,90.4 74.92,86.5 72.92,86.5 72.92,82.6 70.92,82.6 70.92,76.6 
		69.02,76.6 69.02,72.7 67.02,72.7 67.02,68.7 65.02,68.7 65.02,64.8 61.12,64.8 61.12,62.8 57.12,62.8 57.12,60.8 55.12,60.8 
		55.12,58.9 53.22,58.9 53.22,56.9 47.32,56.9 47.32,54.9 45.32,54.9 45.32,52.9 43.32,52.9 43.32,51 41.32,51 41.32,49 39.42,49 
		39.42,45 37.42,45 37.42,43.1 39.42,43.1 41.32,45 41.32,47 43.32,47 43.32,49 45.32,49 45.32,51 47.32,51 47.32,52.9 57.12,52.9 
		57.12,54.9 61.12,54.9 61.12,56.9 63.02,56.9 63.02,51 61.12,49 61.12,47 59.12,47 59.12,45 57.12,45 57.12,41.1 55.12,41.1 
		55.12,39.1 53.22,39.1 53.22,37.1 51.22,37.1 51.22,33.2 49.22,33.2 49.22,31.2 47.32,31.2 47.32,29.2 45.32,27.3 45.32,23.3 
		43.32,23.3 43.32,19.4 41.32,19.4 41.32,7.5 43.32,7.5 43.32,5.6 47.32,5.6 47.32,1.6 43.32,1.6 43.32,-0.4 39.42,-0.4 39.42,-2.3 
		37.42,-2.3 37.42,-4.3 35.42,-4.3 35.42,-8.3 31.52,-8.3 31.52,-10.2 29.52,-10.2 29.52,-14.2 27.52,-14.2 27.52,-20.1 
		25.52,-20.1 25.52,-24.1 23.62,-24.1 23.62,-26 21.62,-26 21.62,-30 19.62,-30 19.62,-32 17.62,-32 17.62,-33.9 11.72,-33.9 
		11.72,-37.9 7.82,-37.9 7.82,-39.8 3.87,-39.8 3.87,-40.53 	"/>
	<rect x="35.42" y="41.05" class="st0" width="2" height="2"/>
	<rect x="31.56" y="43" class="st0" width="3.86" height="2"/>
</g>
<g id="Layer_50">
	<polyline class="st1" points="3.82,84.5 1.82,84.5 -0.08,86.5 1.82,86.5 -2.08,86.5 -2.08,88.5 -4.08,88.5 -2.08,88.5 -2.08,90.4 
		-7.98,90.4 -7.98,92.4 -11.98,92.4 -11.98,94.4 -17.88,94.4 -17.88,92.4 -15.88,92.4 -17.88,92.4 -17.88,90.4 -15.88,90.4 
		-17.88,90.4 -15.88,90.4 -15.88,88.5 -13.88,88.5 -15.88,88.5 -15.88,84.5 -13.88,84.5 -13.88,78.6 -13.88,80.6 -13.88,78.6 
		-11.98,78.6 -13.88,78.6 -11.98,76.6 -11.98,74.7 -7.98,74.7 -7.98,72.7 -6.08,72.7 -6.08,74.7 -6.08,72.7 -4.08,72.7 -4.08,68.7 
		-2.08,68.7 -2.08,66.8 -0.08,66.8 -0.08,68.7 1.82,68.7 -0.08,68.7 -0.08,70.7 7.82,70.7 5.82,70.7 5.82,74.7 7.82,74.7 7.82,80.6 
		9.72,80.6 9.72,84.5 3.82,84.5 	"/>
</g>
<g id="Layer_49">
	<polyline class="st2" points="3.82,84.5 1.82,84.5 -0.08,86.5 1.82,86.5 -2.08,86.5 -2.08,88.5 -4.08,88.5 -2.08,88.5 -2.08,90.4 
		-7.98,90.4 -7.98,92.4 -11.98,92.4 -11.98,94.4 -17.88,94.4 -17.88,92.4 -15.88,92.4 -17.88,92.4 -17.88,90.4 -15.88,90.4 
		-17.88,90.4 -15.88,90.4 -15.88,88.5 -13.88,88.5 -15.88,88.5 -15.88,84.5 -13.88,84.5 -13.88,78.6 -13.88,80.6 -13.88,78.6 
		-11.98,78.6 -13.88,78.6 -11.98,76.6 -11.98,74.7 -7.98,74.7 -7.98,72.7 -6.08,72.7 -6.08,74.7 -6.08,72.7 -4.08,72.7 -4.08,68.7 
		-2.08,68.7 -2.08,66.8 -0.08,66.8 -0.08,68.7 1.82,68.7 -0.08,68.7 -0.08,70.7 7.82,70.7 5.82,70.7 5.82,74.7 7.82,74.7 7.82,80.6 
		9.72,80.6 9.72,84.5 3.82,84.5 	"/>
</g>
<g id="Layer_48">
	<polyline class="st3" points="59.12,54.9 57.12,54.9 59.12,54.9 57.12,54.9 57.12,52.9 47.32,52.9 47.32,51 47.32,52.9 47.32,51 
		45.32,51 45.32,49 43.32,49 43.32,47 41.32,47 41.32,45 39.42,43.1 39.42,37.1 35.42,37.1 35.42,35.2 27.52,35.2 29.52,35.2 
		27.52,35.2 27.52,33.2 25.52,33.2 25.52,35.2 17.62,35.2 17.62,37.1 17.62,35.2 15.72,35.2 17.62,35.2 15.72,35.2 15.72,33.2 
		17.62,33.2 17.62,31.2 19.62,31.2 19.62,27.3 17.62,27.3 19.62,27.3 17.62,27.3 17.62,25.3 15.72,25.3 15.72,23.3 17.62,23.3 
		17.62,21.4 23.62,21.4 23.62,23.3 23.62,21.4 25.52,21.4 23.62,21.4 25.52,23.3 25.52,21.4 25.52,23.3 25.52,21.4 25.52,23.3 
		25.52,21.4 25.52,23.3 25.52,21.4 27.52,21.4 27.52,23.3 27.52,21.4 27.52,23.3 31.52,23.3 31.52,25.3 37.42,25.3 37.42,21.4 
		39.42,21.4 37.42,21.4 37.42,19.4 39.42,19.4 39.42,17.4 41.32,17.4 41.32,19.4 43.32,19.4 43.32,23.3 45.32,23.3 45.32,27.3 
		47.32,29.2 47.32,31.2 49.22,31.2 49.22,33.2 51.22,33.2 51.22,37.1 53.22,37.1 53.22,39.1 55.12,39.1 55.12,41.1 57.12,41.1 
		57.12,45 59.12,45 59.12,47 61.12,47 61.12,49 63.02,51 63.02,56.9 61.12,56.9 61.12,58.9 61.12,54.9 59.12,54.9 	"/>
</g>
<g id="Layer_47">
	<polyline class="st2" points="59.12,54.9 57.12,54.9 59.12,54.9 57.12,54.9 57.12,52.9 47.32,52.9 47.32,51 47.32,52.9 47.32,51 
		45.32,51 45.32,49 43.32,49 43.32,47 41.32,47 41.32,45 39.42,43.1 39.42,37.1 35.42,37.1 35.42,35.2 27.52,35.2 29.52,35.2 
		27.52,35.2 27.52,33.2 25.52,33.2 25.52,35.2 17.62,35.2 17.62,37.1 17.62,35.2 15.72,35.2 17.62,35.2 15.72,35.2 15.72,33.2 
		17.62,33.2 17.62,31.2 19.62,31.2 19.62,27.3 17.62,27.3 19.62,27.3 17.62,27.3 17.62,25.3 15.72,25.3 15.72,23.3 17.62,23.3 
		17.62,21.4 23.62,21.4 23.62,23.3 23.62,21.4 25.52,21.4 23.62,21.4 25.52,23.3 25.52,21.4 25.52,23.3 25.52,21.4 25.52,23.3 
		25.52,21.4 25.52,23.3 25.52,21.4 27.52,21.4 27.52,23.3 27.52,21.4 27.52,23.3 31.52,23.3 31.52,25.3 37.42,25.3 37.42,21.4 
		39.42,21.4 37.42,21.4 37.42,19.4 39.42,19.4 39.42,17.4 41.32,17.4 41.32,19.4 43.32,19.4 43.32,23.3 45.32,23.3 45.32,27.3 
		47.32,29.2 47.32,31.2 49.22,31.2 49.22,33.2 51.22,33.2 51.22,37.1 53.22,37.1 53.22,39.1 55.12,39.1 55.12,41.1 57.12,41.1 
		57.12,45 59.12,45 59.12,47 61.12,47 61.12,49 63.02,51 63.02,56.9 61.12,56.9 61.12,58.9 61.12,54.9 59.12,54.9 	"/>
</g>
<g id="Layer_46">
	<polyline class="st4" points="-0.08,70.7 -0.08,68.7 1.82,68.7 -0.08,68.7 -0.08,66.8 -2.08,66.8 -0.08,66.8 -0.08,64.8 
		-2.08,64.8 -2.08,62.8 1.82,62.8 -0.08,60.8 1.82,60.8 1.82,58.9 1.82,60.8 1.82,58.9 -0.08,58.9 1.82,58.9 1.82,51 -9.98,51 
		-9.98,49 -11.98,49 -9.98,49 -9.98,45 -7.98,45 -7.98,47 -4.08,47 -4.08,45 -4.08,47 -2.08,47 -2.08,45 -0.08,45 -0.08,43.1 
		1.82,43.1 1.82,45 3.82,43.1 3.82,47 1.82,47 5.82,47 5.82,45 7.82,45 7.82,47 9.72,47 9.72,45 11.72,45 11.72,47 13.72,47 
		13.72,45 15.72,45 15.72,43.1 17.62,43.1 21.62,47 25.52,47 25.52,51 27.52,51 27.52,52.9 29.52,52.9 29.52,54.9 31.52,54.9 
		31.52,56.9 33.42,56.9 33.42,60.8 31.52,60.8 31.52,58.9 27.52,58.9 27.52,60.8 19.62,60.8 19.62,56.9 17.62,56.9 17.62,54.9 
		13.72,54.9 13.72,60.8 9.72,60.8 9.72,66.8 7.82,66.8 7.82,70.7 -0.08,70.7 	"/>
</g>
<g id="Layer_45">
	<polyline class="st2" points="-0.08,70.7 -0.08,68.7 1.82,68.7 -0.08,68.7 -0.08,66.8 -2.08,66.8 -0.08,66.8 -0.08,64.8 
		-2.08,64.8 -2.08,62.8 1.82,62.8 -0.08,60.8 1.82,60.8 1.82,58.9 1.82,60.8 1.82,58.9 -0.08,58.9 1.82,58.9 1.82,51 -9.98,51 
		-9.98,49 -11.98,49 -9.98,49 -9.98,45 -7.98,45 -7.98,47 -4.08,47 -4.08,45 -4.08,47 -2.08,47 -2.08,45 -0.08,45 -0.08,43.1 
		1.82,43.1 1.82,45 3.82,43.1 3.82,47 1.82,47 5.82,47 5.82,45 7.82,45 7.82,47 9.72,47 9.72,45 11.72,45 11.72,47 13.72,47 
		13.72,45 15.72,45 15.72,43.1 17.62,43.1 21.62,47 25.52,47 25.52,51 27.52,51 27.52,52.9 29.52,52.9 29.52,54.9 31.52,54.9 
		31.52,56.9 33.42,56.9 33.42,60.8 31.52,60.8 31.52,58.9 27.52,58.9 27.52,60.8 19.62,60.8 19.62,56.9 17.62,56.9 17.62,54.9 
		13.72,54.9 13.72,60.8 9.72,60.8 9.72,66.8 7.82,66.8 7.82,70.7 -0.08,70.7 	"/>
</g>
<g id="Layer_44">
	<polyline class="st5" points="43.32,58.9 41.32,58.9 41.32,56.9 39.42,56.9 39.42,54.9 35.42,54.9 37.42,54.9 35.42,54.9 
		37.42,54.9 35.42,54.9 37.42,54.9 35.42,54.9 37.42,54.9 37.42,56.9 35.42,56.9 37.42,56.9 35.42,56.9 35.42,60.8 33.42,60.8 
		33.42,56.9 31.52,56.9 31.52,54.9 29.52,54.9 29.52,52.9 27.52,52.9 27.52,51 25.52,51 25.52,45 29.52,45 27.52,45 35.42,45 
		35.42,43.1 37.42,43.1 37.42,45 39.42,45 39.42,49 41.32,49 41.32,51 43.32,51 43.32,52.9 45.32,52.9 45.32,54.9 47.32,54.9 
		47.32,56.9 49.22,56.9 47.32,56.9 47.32,58.9 45.32,58.9 47.32,58.9 45.32,58.9 47.32,58.9 47.32,60.8 45.32,60.8 47.32,60.8 
		47.32,62.8 49.22,62.8 47.32,62.8 49.22,62.8 49.22,60.8 51.22,60.8 49.22,60.8 51.22,60.8 51.22,58.9 53.22,58.9 51.22,58.9 
		51.22,56.9 53.22,56.9 53.22,58.9 55.12,58.9 55.12,60.8 57.12,60.8 57.12,62.8 53.22,62.8 53.22,64.8 53.22,62.8 51.22,62.8 
		51.22,66.8 49.22,66.8 49.22,70.7 47.32,72.7 47.32,70.7 45.32,70.7 45.32,68.7 43.32,68.7 43.32,66.8 41.32,66.8 43.32,66.8 
		43.32,64.8 41.32,62.8 41.32,60.8 43.32,60.8 43.32,58.9 	"/>
</g>
<g id="Layer_43">
	<polyline class="st2" points="43.32,58.9 41.32,58.9 41.32,56.9 39.42,56.9 39.42,54.9 35.42,54.9 37.42,54.9 35.42,54.9 
		37.42,54.9 35.42,54.9 37.42,54.9 35.42,54.9 37.42,54.9 37.42,56.9 35.42,56.9 37.42,56.9 35.42,56.9 35.42,60.8 33.42,60.8 
		33.42,56.9 31.52,56.9 31.52,54.9 29.52,54.9 29.52,52.9 27.52,52.9 27.52,51 25.52,51 25.52,45 29.52,45 27.52,45 35.42,45 
		35.42,43.1 37.42,43.1 37.42,45 39.42,45 39.42,49 41.32,49 41.32,51 43.32,51 43.32,52.9 45.32,52.9 45.32,54.9 47.32,54.9 
		47.32,56.9 49.22,56.9 47.32,56.9 47.32,58.9 45.32,58.9 47.32,58.9 45.32,58.9 47.32,58.9 47.32,60.8 45.32,60.8 47.32,60.8 
		47.32,62.8 49.22,62.8 47.32,62.8 49.22,62.8 49.22,60.8 51.22,60.8 49.22,60.8 51.22,60.8 51.22,58.9 53.22,58.9 51.22,58.9 
		51.22,56.9 53.22,56.9 53.22,58.9 55.12,58.9 55.12,60.8 57.12,60.8 57.12,62.8 53.22,62.8 53.22,64.8 53.22,62.8 51.22,62.8 
		51.22,66.8 49.22,66.8 49.22,70.7 47.32,72.7 47.32,70.7 45.32,70.7 45.32,68.7 43.32,68.7 43.32,66.8 41.32,66.8 43.32,66.8 
		43.32,64.8 41.32,62.8 41.32,60.8 43.32,60.8 43.32,58.9 	"/>
</g>
<g id="Layer_42">
	<polyline class="st6" points="-13.88,66.8 -15.88,66.8 -13.88,66.8 -13.88,62.8 -11.98,62.8 -11.98,60.8 -9.98,60.8 -9.98,58.9 
		-11.98,58.9 -9.98,58.9 -11.98,58.9 -9.98,58.9 -9.98,56.9 -7.98,56.9 -9.98,56.9 -7.98,56.9 -7.98,62.8 -6.08,62.8 -6.08,60.8 
		-4.08,60.8 -6.08,60.8 -6.08,62.8 -4.08,62.8 -6.08,62.8 -4.08,62.8 -6.08,62.8 -6.08,64.8 -9.98,64.8 -7.98,64.8 -9.98,64.8 
		-7.98,64.8 -9.98,66.8 -13.88,66.8 	"/>
</g>
<g id="Layer_41">
	<polyline class="st2" points="-13.88,66.8 -15.88,66.8 -13.88,66.8 -13.88,62.8 -11.98,62.8 -11.98,60.8 -9.98,60.8 -9.98,58.9 
		-11.98,58.9 -9.98,58.9 -11.98,58.9 -9.98,58.9 -9.98,56.9 -7.98,56.9 -9.98,56.9 -7.98,56.9 -7.98,62.8 -6.08,62.8 -6.08,60.8 
		-4.08,60.8 -6.08,60.8 -6.08,62.8 -4.08,62.8 -6.08,62.8 -4.08,62.8 -6.08,62.8 -6.08,64.8 -9.98,64.8 -7.98,64.8 -9.98,64.8 
		-7.98,64.8 -9.98,66.8 -13.88,66.8 	"/>
</g>
<g id="Layer_40">
	<polyline class="st7" points="-4.08,54.9 -4.08,56.9 -6.08,56.9 -6.08,58.9 -7.98,58.9 -7.98,56.9 -9.98,56.9 -7.98,56.9 
		-9.98,56.9 -9.98,58.9 -11.98,58.9 -9.98,58.9 -11.98,58.9 -9.98,58.9 -9.98,60.8 -11.98,60.8 -11.98,62.8 -13.88,62.8 
		-13.88,66.8 -15.88,66.8 -15.88,64.8 -15.88,66.8 -17.88,66.8 -17.88,68.7 -17.88,66.8 -21.78,66.8 -21.78,68.7 -21.78,66.8 
		-21.78,68.7 -21.78,66.8 -23.78,66.8 -23.78,64.8 -21.78,64.8 -21.78,60.8 -25.78,60.8 -25.78,58.9 -21.78,58.9 -21.78,56.9 
		-19.88,56.9 -19.88,54.9 -17.88,54.9 -19.88,54.9 -17.88,54.9 -17.88,52.9 -11.98,52.9 -11.98,51 -11.98,52.9 -11.98,51 1.82,51 
		1.82,56.9 -0.08,56.9 -0.08,52.9 -2.08,52.9 -2.08,54.9 -2.08,52.9 -4.08,52.9 -4.08,54.9 	"/>
</g>
<g id="Layer_39">
	<polyline class="st2" points="-4.08,54.9 -4.08,56.9 -6.08,56.9 -6.08,58.9 -7.98,58.9 -7.98,56.9 -9.98,56.9 -7.98,56.9 
		-9.98,56.9 -9.98,58.9 -11.98,58.9 -9.98,58.9 -11.98,58.9 -9.98,58.9 -9.98,60.8 -11.98,60.8 -11.98,62.8 -13.88,62.8 
		-13.88,66.8 -15.88,66.8 -15.88,64.8 -15.88,66.8 -17.88,66.8 -17.88,68.7 -17.88,66.8 -21.78,66.8 -21.78,68.7 -21.78,66.8 
		-21.78,68.7 -21.78,66.8 -23.78,66.8 -23.78,64.8 -21.78,64.8 -21.78,60.8 -25.78,60.8 -25.78,58.9 -21.78,58.9 -21.78,56.9 
		-19.88,56.9 -19.88,54.9 -17.88,54.9 -19.88,54.9 -17.88,54.9 -17.88,52.9 -11.98,52.9 -11.98,51 -11.98,52.9 -11.98,51 1.82,51 
		1.82,56.9 -0.08,56.9 -0.08,52.9 -2.08,52.9 -2.08,54.9 -2.08,52.9 -4.08,52.9 -4.08,54.9 	"/>
</g>
<g id="Layer_38">
	<polyline class="st4" points="1.82,56.9 1.82,58.9 -0.08,58.9 1.82,58.9 1.82,60.8 1.82,58.9 1.82,60.8 -0.08,60.8 1.82,62.8 
		-2.08,62.8 -2.08,64.8 -0.08,64.8 -0.08,66.8 -2.08,66.8 -2.08,68.7 -4.08,68.7 -4.08,72.7 -6.08,72.7 -6.08,74.7 -6.08,72.7 
		-7.98,72.7 -7.98,74.7 -11.98,74.7 -11.98,76.6 -11.98,74.7 -11.98,76.6 -13.88,76.6 -13.88,72.7 -19.88,72.7 -19.88,68.7 
		-23.78,68.7 -21.78,68.7 -23.78,68.7 -21.78,68.7 -21.78,66.8 -21.78,68.7 -21.78,66.8 -21.78,68.7 -21.78,66.8 -17.88,66.8 
		-17.88,68.7 -17.88,66.8 -15.88,66.8 -15.88,64.8 -15.88,66.8 -9.98,66.8 -7.98,64.8 -9.98,64.8 -7.98,64.8 -9.98,64.8 -6.08,64.8 
		-6.08,62.8 -4.08,62.8 -6.08,62.8 -4.08,62.8 -6.08,62.8 -6.08,60.8 -4.08,60.8 -6.08,60.8 -6.08,62.8 -7.98,62.8 -7.98,58.9 
		-6.08,58.9 -6.08,56.9 -4.08,56.9 -4.08,52.9 -2.08,52.9 -2.08,54.9 -2.08,52.9 -0.08,52.9 -0.08,56.9 1.82,56.9 	"/>
</g>
<g id="Layer_37">
	<polyline class="st8" points="23.62,21.4 17.62,21.4 17.62,23.3 15.72,23.3 15.72,25.3 17.62,25.3 17.62,27.3 19.62,27.3 
		17.62,27.3 19.62,27.3 19.62,31.2 17.62,31.2 17.62,33.2 15.72,33.2 15.72,35.2 13.72,35.2 13.72,37.1 11.72,37.1 11.72,31.2 
		5.82,31.2 5.82,33.2 3.82,33.2 3.82,29.2 -0.08,29.2 -0.08,31.2 -2.08,31.2 -2.08,29.2 -2.08,31.2 -2.08,29.2 -0.08,29.2 
		-0.08,27.3 -2.08,27.3 -0.08,27.3 -2.08,27.3 -2.08,23.3 -0.08,23.3 -2.08,23.3 -2.08,21.4 -0.08,21.4 -0.08,19.4 -2.08,19.4 
		-2.08,17.4 -0.08,17.4 -2.08,17.4 -0.08,17.4 -0.08,15.4 1.82,15.4 1.82,13.5 9.72,13.5 9.72,15.4 13.72,15.4 13.72,13.5 
		11.72,13.5 13.72,13.5 13.72,11.5 15.72,11.5 15.72,9.5 13.72,9.5 17.62,9.5 17.62,7.5 19.62,7.5 19.62,5.6 19.62,7.5 23.62,7.5 
		23.62,5.6 25.52,5.6 25.52,3.6 27.52,3.6 27.52,-2.3 31.52,-2.3 31.52,1.6 33.42,1.6 33.42,-0.4 33.42,1.6 39.42,1.6 39.42,-0.4 
		43.32,-0.4 43.32,1.6 47.32,1.6 47.32,3.6 49.22,3.6 47.32,3.6 49.22,3.6 47.32,3.6 49.22,3.6 47.32,3.6 49.22,3.6 47.32,3.6 
		47.32,5.6 43.32,5.6 43.32,7.5 41.32,7.5 41.32,19.4 43.32,19.4 41.32,19.4 41.32,17.4 39.42,17.4 39.42,19.4 37.42,19.4 
		37.42,21.4 39.42,21.4 37.42,21.4 37.42,25.3 31.52,25.3 31.52,23.3 27.52,23.3 27.52,21.4 27.52,23.3 27.52,21.4 25.52,21.4 
		25.52,23.3 25.52,21.4 25.52,23.3 25.52,21.4 25.52,23.3 25.52,21.4 25.52,23.3 23.62,21.4 25.52,21.4 23.62,21.4 23.62,23.3 
		23.62,21.4 	"/>
</g>
<g id="Layer_36">
	<polyline class="st2" points="23.62,21.4 17.62,21.4 17.62,23.3 15.72,23.3 15.72,25.3 17.62,25.3 17.62,27.3 19.62,27.3 
		17.62,27.3 19.62,27.3 19.62,31.2 17.62,31.2 17.62,33.2 15.72,33.2 15.72,35.2 13.72,35.2 13.72,37.1 11.72,37.1 11.72,31.2 
		5.82,31.2 5.82,33.2 3.82,33.2 3.82,29.2 -0.08,29.2 -0.08,31.2 -2.08,31.2 -2.08,29.2 -2.08,31.2 -2.08,29.2 -0.08,29.2 
		-0.08,27.3 -2.08,27.3 -0.08,27.3 -2.08,27.3 -2.08,23.3 -0.08,23.3 -2.08,23.3 -2.08,21.4 -0.08,21.4 -0.08,19.4 -2.08,19.4 
		-2.08,17.4 -0.08,17.4 -2.08,17.4 -0.08,17.4 -0.08,15.4 1.82,15.4 1.82,13.5 9.72,13.5 9.72,15.4 13.72,15.4 13.72,13.5 
		11.72,13.5 13.72,13.5 13.72,11.5 15.72,11.5 15.72,9.5 13.72,9.5 17.62,9.5 17.62,7.5 19.62,7.5 19.62,5.6 19.62,7.5 23.62,7.5 
		23.62,5.6 25.52,5.6 25.52,3.6 27.52,3.6 27.52,-2.3 31.52,-2.3 31.52,1.6 33.42,1.6 33.42,-0.4 33.42,1.6 39.42,1.6 39.42,-0.4 
		43.32,-0.4 43.32,1.6 47.32,1.6 47.32,3.6 49.22,3.6 47.32,3.6 49.22,3.6 47.32,3.6 49.22,3.6 47.32,3.6 49.22,3.6 47.32,3.6 
		47.32,5.6 43.32,5.6 43.32,7.5 41.32,7.5 41.32,19.4 43.32,19.4 41.32,19.4 41.32,17.4 39.42,17.4 39.42,19.4 37.42,19.4 
		37.42,21.4 39.42,21.4 37.42,21.4 37.42,25.3 31.52,25.3 31.52,23.3 27.52,23.3 27.52,21.4 27.52,23.3 27.52,21.4 25.52,21.4 
		25.52,23.3 25.52,21.4 25.52,23.3 25.52,21.4 25.52,23.3 25.52,21.4 25.52,23.3 23.62,21.4 25.52,21.4 23.62,21.4 23.62,23.3 
		23.62,21.4 	"/>
</g>
<g id="Layer_35">
	<polyline class="st9a" points="29.42,92.4 27.42,92.4 27.42,94.4 25.42,94.4 25.52,90.4 19.52,90.4 19.52,92.4 19.52,90.4 
		15.62,90.4 15.62,92.4 15.62,90.4 11.62,90.4 11.62,92.3 7.72,92.3 7.72,90.4 9.72,90.4 9.72,88.4 7.72,88.4 9.72,88.4 9.72,80.5 
		7.72,80.5 7.82,74.6 5.82,74.5 5.82,70.6 7.82,70.6 7.82,66.7 9.82,66.7 9.82,64.7 17.72,64.7 17.72,70.7 23.62,70.7 23.62,68.7 
		27.62,68.7 25.62,68.7 25.62,64.8 31.52,64.8 29.52,64.8 29.62,60.8 27.62,60.8 27.62,62.8 25.62,62.8 25.62,60.8 27.62,60.8 
		27.62,58.9 31.62,58.9 31.52,60.9 33.52,60.9 33.52,58.9 33.52,60.9 35.52,60.9 35.52,56.9 37.52,56.9 35.52,56.9 37.52,56.9 
		37.52,55 35.52,55 37.52,55 35.52,55 37.52,55 35.52,55 37.52,55 35.52,55 39.52,55 39.52,57 41.42,57 41.42,58.9 43.42,58.9 
		43.42,60.9 41.42,60.9 41.42,62.9 43.42,64.9 43.42,66.8 41.42,66.8 43.42,66.8 43.32,68.8 45.32,68.8 45.32,70.8 47.32,70.8 
		47.32,72.8 45.32,72.8 45.32,70.8 45.32,72.8 45.32,70.8 43.32,70.8 43.32,72.8 41.32,72.8 41.32,74.7 43.32,74.7 41.32,74.7 
		43.32,74.7 41.32,74.7 41.32,78.7 43.32,78.7 41.32,78.7 41.32,80.7 39.32,80.6 39.32,82.6 41.32,82.6 41.32,84.6 43.32,84.6 
		43.32,86.6 41.32,86.6 43.32,86.6 43.22,88.6 41.32,88.5 41.32,90.5 39.32,90.5 39.32,92.5 37.32,92.5 37.32,98.4 37.32,96.4 
		35.32,96.4 35.32,92.5 29.42,92.4 	"/>
</g>
<g id="Layer_34">
	<polyline class="st2" points="29.52,92.4 27.52,92.4 27.52,94.4 25.52,94.4 25.52,90.4 19.62,90.4 19.62,92.4 19.62,90.4 
		15.72,90.4 15.72,92.4 15.72,90.4 11.72,90.4 11.72,92.4 7.82,92.4 7.82,90.4 9.72,90.4 9.72,88.5 7.82,88.5 9.72,88.5 9.72,80.6 
		7.82,80.6 7.82,74.7 5.82,74.7 5.82,70.7 7.82,70.7 7.82,66.8 9.72,66.8 9.72,64.8 17.62,64.8 17.62,70.7 23.62,70.7 23.62,68.7 
		27.52,68.7 25.52,68.7 25.52,64.8 31.52,64.8 29.52,64.8 29.52,60.8 27.52,60.8 27.52,62.8 25.52,62.8 25.52,60.8 27.52,60.8 
		27.52,58.9 31.52,58.9 31.52,60.8 33.42,60.8 33.42,58.9 33.42,60.8 35.42,60.8 35.42,56.9 37.42,56.9 35.42,56.9 37.42,56.9 
		37.42,54.9 35.42,54.9 37.42,54.9 35.42,54.9 37.42,54.9 35.42,54.9 37.42,54.9 35.42,54.9 39.42,54.9 39.42,56.9 41.32,56.9 
		41.32,58.9 43.32,58.9 43.32,60.8 41.32,60.8 41.32,62.8 43.32,64.8 43.32,66.8 41.32,66.8 43.32,66.8 43.32,68.7 45.32,68.7 
		45.32,70.7 47.32,70.7 47.32,72.7 45.32,72.7 45.32,70.7 45.32,72.7 45.32,70.7 43.32,70.7 43.32,72.7 41.32,72.7 41.32,74.7 
		43.32,74.7 41.32,74.7 43.32,74.7 41.32,74.7 41.32,78.6 43.32,78.6 41.32,78.6 41.32,80.6 39.42,80.6 39.42,82.6 41.32,82.6 
		41.32,84.5 43.32,84.5 43.32,86.5 41.32,86.5 43.32,86.5 43.32,88.5 41.32,88.5 41.32,90.4 39.42,90.4 39.42,92.4 37.42,92.4 
		37.42,98.3 37.42,96.4 35.42,96.4 35.42,92.4 29.52,92.4 	"/>
</g>
<g id="Layer_33">
	<polyline class="st4" points="47.32,60.8 45.32,60.8 47.32,60.8 47.32,58.9 45.32,58.9 47.32,58.9 45.32,58.9 47.32,58.9 
		47.32,56.9 51.22,56.9 51.22,58.9 53.22,58.9 51.22,58.9 51.22,60.8 49.22,60.8 51.22,60.8 49.22,60.8 49.22,62.8 47.32,62.8 
		49.22,62.8 47.32,62.8 47.32,60.8 	"/>
</g>
<g id="Layer_32">
	<polyline class="st2" points="47.32,60.8 45.32,60.8 47.32,60.8 47.32,58.9 45.32,58.9 47.32,58.9 45.32,58.9 47.32,58.9 
		47.32,56.9 51.22,56.9 51.22,58.9 53.22,58.9 51.22,58.9 51.22,60.8 49.22,60.8 51.22,60.8 49.22,60.8 49.22,62.8 47.32,62.8 
		49.22,62.8 47.32,62.8 47.32,60.8 	"/>
</g>
<g id="Layer_31">
	<polyline class="st10" points="27.52,33.2 27.52,35.2 29.52,35.2 27.52,35.2 31.52,35.2 31.52,37.1 33.42,37.1 31.52,37.1 
		31.52,39.1 29.52,39.1 29.52,43.1 25.52,43.1 27.52,43.1 27.52,45 25.52,45 25.52,47 21.62,47 17.62,43.1 15.72,43.1 15.72,45 
		13.72,45 13.72,47 11.72,47 11.72,45 9.72,45 9.72,47 7.82,47 7.82,45 5.82,45 5.82,47 1.82,47 3.82,47 3.82,43.1 1.82,45 
		1.82,43.1 -4.08,43.1 -4.08,41.1 -2.08,41.1 -2.08,35.2 -0.08,35.2 -2.08,35.2 -2.08,29.2 -2.08,31.2 -0.08,31.2 -0.08,29.2 
		3.82,29.2 3.82,33.2 5.82,33.2 5.82,31.2 11.72,31.2 11.72,37.1 13.72,37.1 13.72,35.2 17.62,35.2 15.72,35.2 17.62,35.2 
		17.62,37.1 17.62,35.2 25.52,35.2 25.52,33.2 27.52,33.2 	"/>
</g>
<g id="Layer_30">
	<polyline class="st2" points="27.52,33.2 27.52,35.2 29.52,35.2 27.52,35.2 31.52,35.2 31.52,37.1 33.42,37.1 31.52,37.1 
		31.52,39.1 29.52,39.1 29.52,43.1 25.52,43.1 27.52,43.1 27.52,45 25.52,45 25.52,47 21.62,47 17.62,43.1 15.72,43.1 15.72,45 
		13.72,45 13.72,47 11.72,47 11.72,45 9.72,45 9.72,47 7.82,47 7.82,45 5.82,45 5.82,47 1.82,47 3.82,47 3.82,43.1 1.82,45 
		1.82,43.1 -4.08,43.1 -4.08,41.1 -2.08,41.1 -2.08,35.2 -0.08,35.2 -2.08,35.2 -2.08,29.2 -2.08,31.2 -0.08,31.2 -0.08,29.2 
		3.82,29.2 3.82,33.2 5.82,33.2 5.82,31.2 11.72,31.2 11.72,37.1 13.72,37.1 13.72,35.2 17.62,35.2 15.72,35.2 17.62,35.2 
		17.62,37.1 17.62,35.2 25.52,35.2 25.52,33.2 27.52,33.2 	"/>
</g>
<g id="Layer_29">
	<polyline class="st11" points="-35.68,54.9 -33.68,52.9 -35.68,52.9 -35.68,51 -33.68,51 -33.68,49 -33.68,51 -31.68,51 -31.68,49 
		-29.68,49 -29.68,47 -27.78,47 -29.68,47 -27.78,47 -29.68,47 -27.78,47 -27.78,45 -27.78,47 -25.78,47 -25.78,49 -23.78,49 
		-23.78,51 -21.78,51 -21.78,52.9 -21.78,51 -19.88,51 -19.88,54.9 -17.88,54.9 -19.88,54.9 -19.88,56.9 -21.78,56.9 -21.78,58.9 
		-25.78,58.9 -25.78,56.9 -31.68,56.9 -31.68,54.9 -31.68,56.9 -31.68,54.9 -31.68,56.9 -31.68,54.9 -31.68,56.9 -35.68,56.9 
		-35.68,54.9 -33.68,54.9 -35.68,54.9 	"/>
</g>
<g id="Layer_28">
	<polyline class="st2" points="-35.68,54.9 -33.68,52.9 -35.68,52.9 -35.68,51 -33.68,51 -33.68,49 -33.68,51 -31.68,51 -31.68,49 
		-29.68,49 -29.68,47 -27.78,47 -29.68,47 -27.78,47 -29.68,47 -27.78,47 -27.78,45 -27.78,47 -25.78,47 -25.78,49 -23.78,49 
		-23.78,51 -21.78,51 -21.78,52.9 -21.78,51 -19.88,51 -19.88,54.9 -17.88,54.9 -19.88,54.9 -19.88,56.9 -21.78,56.9 -21.78,58.9 
		-25.78,58.9 -25.78,56.9 -31.68,56.9 -31.68,54.9 -31.68,56.9 -31.68,54.9 -31.68,56.9 -31.68,54.9 -31.68,56.9 -35.68,56.9 
		-35.68,54.9 -33.68,54.9 -35.68,54.9 	"/>
</g>
<g id="Kingston_upon_Hull_East">
    <a xlink:href="#">
	<polyline class="st12h" points="35.42,43.1 33.42,43.1 33.42,41.1 35.42,41.1 33.42,41.1 35.42,41.1 35.42,39.1 33.42,39.1 
		35.42,39.1 33.42,39.1 33.42,37.1 33.42,39.1 33.42,37.1 39.42,37.1 39.42,43.1 37.42,43.1 37.42,41.1 35.42,41.1 35.42,43.1 	"/>
    </a>
</g>
<g id="Layer_26">
</g>
<g id="Kingston_upon_Hull_North">
    <a xlink:href="#2">
	<polyline class="st13h" points="37.42,37.1 33.42,37.1 33.42,39.1 33.42,37.1 33.42,39.1 35.42,39.1 33.42,39.1 33.42,41.1 
		31.52,41.1 31.52,39.1 29.52,39.1 31.52,39.1 31.52,37.1 33.42,37.1 31.52,37.1 31.52,35.2 35.42,35.2 35.42,37.1 37.42,37.1 	"/>
    </a>
</g>
<g id="Layer_24">
</g>
<g id="Kingston_upon_Hull_West_and_Hessle">
    <a xlink:href="#3">
	<polyline class="st13h" points="29.52,43.1 29.52,45 27.52,45 27.52,43.1 25.52,43.1 29.52,43.1 29.52,39.1 31.52,39.1 31.52,41.1 
		33.42,41.1 33.42,39.1 35.42,39.1 35.42,41.1 33.42,41.1 35.42,41.1 33.42,41.1 33.42,43.1 31.52,43.1 31.52,45 29.52,45 
		29.52,43.1 	"/>
    </a>
</g>
<g id="Layer_22">
</g>
<g id="Layer_21">
	<polyline class="st14" points="72.92,96.4 70.92,98.3 69.02,98.3 69.02,96.4 69.02,98.3 63.02,98.3 63.02,102.3 65.02,102.3 
		55.12,102.3 55.12,104.3 53.22,104.3 53.22,102.3 53.22,104.3 51.22,104.3 51.22,108.2 49.22,108.2 51.22,108.2 49.22,108.2 
		49.22,112.2 49.22,110.2 47.32,110.2 49.22,110.2 47.32,110.2 47.32,112.2 47.32,110.2 45.32,110.2 45.32,108.2 43.32,108.2 
		43.32,104.3 41.32,104.3 43.32,104.3 41.32,104.3 41.32,100.3 39.42,100.3 39.42,98.3 37.42,98.3 37.42,92.4 39.42,92.4 
		39.42,90.4 41.32,90.4 41.32,88.5 43.32,88.5 43.32,86.5 41.32,86.5 43.32,86.5 43.32,84.5 41.32,84.5 41.32,82.6 39.42,82.6 
		39.42,80.6 41.32,80.6 41.32,78.6 43.32,78.6 41.32,78.6 41.32,74.7 43.32,74.7 41.32,74.7 43.32,74.7 41.32,74.7 41.32,72.7 
		43.32,72.7 43.32,70.7 45.32,70.7 45.32,72.7 45.32,70.7 45.32,72.7 47.32,72.7 49.22,70.7 49.22,66.8 51.22,66.8 51.22,62.8 
		53.22,62.8 53.22,64.8 53.22,62.8 57.12,62.8 57.12,60.8 57.12,62.8 61.12,62.8 59.12,62.8 61.12,62.8 61.12,64.8 63.02,64.8 
		61.12,64.8 65.02,64.8 65.02,68.7 67.02,68.7 67.02,72.7 69.02,72.7 69.02,76.6 70.92,76.6 70.92,82.6 72.92,82.6 72.92,86.5 
		72.92,84.5 72.92,86.5 74.92,86.5 74.92,88.5 74.92,86.5 74.92,90.4 76.92,90.4 76.92,94.4 74.92,94.4 74.92,92.4 74.92,94.4 
		72.92,94.4 74.92,94.4 72.92,94.4 72.92,96.4 72.92,94.4 72.92,96.4 	"/>
</g>
<g id="Layer_20">
	<polyline class="st2" points="72.92,96.4 70.92,98.3 69.02,98.3 69.02,96.4 69.02,98.3 63.02,98.3 63.02,102.3 65.02,102.3 
		55.12,102.3 55.12,104.3 53.22,104.3 53.22,102.3 53.22,104.3 51.22,104.3 51.22,108.2 49.22,108.2 51.22,108.2 49.22,108.2 
		49.22,112.2 49.22,110.2 47.32,110.2 49.22,110.2 47.32,110.2 47.32,112.2 47.32,110.2 45.32,110.2 45.32,108.2 43.32,108.2 
		43.32,104.3 41.32,104.3 43.32,104.3 41.32,104.3 41.32,100.3 39.42,100.3 39.42,98.3 37.42,98.3 37.42,92.4 39.42,92.4 
		39.42,90.4 41.32,90.4 41.32,88.5 43.32,88.5 43.32,86.5 41.32,86.5 43.32,86.5 43.32,84.5 41.32,84.5 41.32,82.6 39.42,82.6 
		39.42,80.6 41.32,80.6 41.32,78.6 43.32,78.6 41.32,78.6 41.32,74.7 43.32,74.7 41.32,74.7 43.32,74.7 41.32,74.7 41.32,72.7 
		43.32,72.7 43.32,70.7 45.32,70.7 45.32,72.7 45.32,70.7 45.32,72.7 47.32,72.7 49.22,70.7 49.22,66.8 51.22,66.8 51.22,62.8 
		53.22,62.8 53.22,64.8 53.22,62.8 57.12,62.8 57.12,60.8 57.12,62.8 61.12,62.8 59.12,62.8 61.12,62.8 61.12,64.8 63.02,64.8 
		61.12,64.8 65.02,64.8 65.02,68.7 67.02,68.7 67.02,72.7 69.02,72.7 69.02,76.6 70.92,76.6 70.92,82.6 72.92,82.6 72.92,86.5 
		72.92,84.5 72.92,86.5 74.92,86.5 74.92,88.5 74.92,86.5 74.92,90.4 76.92,90.4 76.92,94.4 74.92,94.4 74.92,92.4 74.92,94.4 
		72.92,94.4 74.92,94.4 72.92,94.4 72.92,96.4 72.92,94.4 72.92,96.4 	"/>
</g>
<g id="Layer_19">
	<polyline class="st15" points="-19.88,51 -21.78,51 -21.78,52.9 -21.78,51 -23.78,51 -23.78,49 -25.78,49 -25.78,47 -27.78,47 
		-27.78,45 -27.78,47 -29.68,47 -27.78,47 -29.68,47 -27.78,47 -29.68,47 -29.68,49 -31.68,49 -31.68,51 -33.68,51 -33.68,49 
		-31.68,49 -33.68,49 -31.68,47 -33.68,47 -33.68,45 -27.78,45 -27.78,43.1 -21.78,43.1 -21.78,45 -17.88,45 -17.88,47 -19.88,47 
		-19.88,51 	"/>
</g>
<g id="Layer_18">
	<polyline class="st2" points="-19.88,51 -21.78,51 -21.78,52.9 -21.78,51 -23.78,51 -23.78,49 -25.78,49 -25.78,47 -27.78,47 
		-27.78,45 -27.78,47 -29.68,47 -27.78,47 -29.68,47 -27.78,47 -29.68,47 -29.68,49 -31.68,49 -31.68,51 -33.68,51 -33.68,49 
		-31.68,49 -33.68,49 -31.68,47 -33.68,47 -33.68,45 -27.78,45 -27.78,43.1 -21.78,43.1 -21.78,45 -17.88,45 -17.88,47 -19.88,47 
		-19.88,51 	"/>
</g>
<g id="Layer_17">
	<polyline class="st16" points="-19.88,86.5 -21.78,86.5 -21.78,82.6 -21.78,84.5 -23.78,84.5 -23.78,82.6 -23.78,84.5 -23.78,80.6 
		-25.78,82.6 -25.78,80.6 -27.78,80.6 -27.78,78.6 -25.78,78.6 -25.78,74.7 -19.88,74.7 -19.88,72.7 -13.88,72.7 -13.88,76.6 
		-11.98,76.6 -11.98,74.7 -11.98,76.6 -13.88,78.6 -11.98,78.6 -13.88,78.6 -13.88,80.6 -13.88,78.6 -13.88,84.5 -15.88,84.5 
		-15.88,86.5 -19.88,86.5 	"/>
</g>
<g id="Layer_16">
	<polyline class="st2" points="-19.88,86.5 -21.78,86.5 -21.78,82.6 -21.78,84.5 -23.78,84.5 -23.78,82.6 -23.78,84.5 -23.78,80.6 
		-25.78,82.6 -25.78,80.6 -27.78,80.6 -27.78,78.6 -25.78,78.6 -25.78,74.7 -19.88,74.7 -19.88,72.7 -13.88,72.7 -13.88,76.6 
		-11.98,76.6 -11.98,74.7 -11.98,76.6 -13.88,78.6 -11.98,78.6 -13.88,78.6 -13.88,80.6 -13.88,78.6 -13.88,84.5 -15.88,84.5 
		-15.88,86.5 -19.88,86.5 	"/>
</g>
<g id="Layer_15">
	<polyline class="st17" points="17.62,-12.2 15.72,-12.2 17.62,-12.2 17.62,-16.2 19.62,-16.2 17.62,-16.2 17.62,-18.1 15.72,-18.1 
		15.72,-22.1 13.72,-20.1 13.72,-22.1 11.72,-22.1 11.72,-20.1 3.82,-20.1 5.82,-20.1 3.82,-20.1 3.82,-22.1 -0.08,-22.1 
		-0.08,-24.1 -7.98,-24.1 -7.98,-26 -9.98,-26 -9.98,-24.1 -9.98,-30 -4.08,-30 -6.08,-32 -7.98,-32 -7.98,-33.9 -4.08,-33.9 
		-4.08,-32 -2.08,-32 -2.08,-33.9 1.82,-33.9 1.82,-32 1.82,-37.9 3.82,-37.9 3.82,-39.8 7.82,-39.8 5.82,-39.8 7.82,-39.8 
		5.82,-39.8 7.82,-39.8 7.82,-37.9 11.72,-37.9 9.72,-37.9 11.72,-37.9 11.72,-35.9 13.72,-35.9 11.72,-35.9 11.72,-33.9 
		17.62,-33.9 17.62,-32 19.62,-32 19.62,-30 21.62,-30 21.62,-26 23.62,-26 23.62,-24.1 25.52,-24.1 25.52,-20.1 27.52,-20.1 
		27.52,-14.2 27.52,-16.2 27.52,-14.2 29.52,-14.2 29.52,-16.2 29.52,-14.2 29.52,-16.2 29.52,-14.2 29.52,-16.2 29.52,-10.2 
		31.52,-10.2 31.52,-8.3 35.42,-8.3 33.42,-8.3 35.42,-8.3 33.42,-8.3 35.42,-8.3 35.42,-6.3 25.52,-6.3 25.52,-4.3 15.72,-4.3 
		17.62,-4.3 17.62,-10.2 15.72,-10.2 15.72,-12.2 17.62,-12.2 	"/>
</g>
<g id="Layer_14">
	<polyline class="st2" points="17.62,-12.2 15.72,-12.2 17.62,-12.2 17.62,-16.2 19.62,-16.2 17.62,-16.2 17.62,-18.1 15.72,-18.1 
		15.72,-22.1 13.72,-20.1 13.72,-22.1 11.72,-22.1 11.72,-20.1 3.82,-20.1 5.82,-20.1 3.82,-20.1 3.82,-22.1 -0.08,-22.1 
		-0.08,-24.1 -7.98,-24.1 -7.98,-26 -9.98,-26 -9.98,-24.1 -9.98,-30 -4.08,-30 -6.08,-32 -7.98,-32 -7.98,-33.9 -4.08,-33.9 
		-4.08,-32 -2.08,-32 -2.08,-33.9 1.82,-33.9 1.82,-32 1.82,-37.9 3.82,-37.9 3.82,-39.8 7.82,-39.8 5.82,-39.8 7.82,-39.8 
		5.82,-39.8 7.82,-39.8 7.82,-37.9 11.72,-37.9 9.72,-37.9 11.72,-37.9 11.72,-35.9 13.72,-35.9 11.72,-35.9 11.72,-33.9 
		17.62,-33.9 17.62,-32 19.62,-32 19.62,-30 21.62,-30 21.62,-26 23.62,-26 23.62,-24.1 25.52,-24.1 25.52,-20.1 27.52,-20.1 
		27.52,-14.2 27.52,-16.2 27.52,-14.2 29.52,-14.2 29.52,-16.2 29.52,-14.2 29.52,-16.2 29.52,-14.2 29.52,-16.2 29.52,-10.2 
		31.52,-10.2 31.52,-8.3 35.42,-8.3 33.42,-8.3 35.42,-8.3 33.42,-8.3 35.42,-8.3 35.42,-6.3 25.52,-6.3 25.52,-4.3 15.72,-4.3 
		17.62,-4.3 17.62,-10.2 15.72,-10.2 15.72,-12.2 17.62,-12.2 	"/>
</g>
<g id="Layer_13">
	<polyline class="st18" points="17.62,70.7 17.62,64.8 9.72,64.8 9.72,60.8 13.72,60.8 13.72,54.9 17.62,54.9 17.62,56.9 
		19.62,56.9 19.62,60.8 25.52,60.8 25.52,62.8 27.52,62.8 27.52,60.8 29.52,60.8 29.52,64.8 31.52,64.8 25.52,64.8 25.52,68.7 
		27.52,68.7 23.62,68.7 23.62,70.7 17.62,70.7 	"/>
</g>
<g id="Layer_12">
	<polyline class="st2" points="17.62,70.7 17.62,64.8 9.72,64.8 9.72,60.8 13.72,60.8 13.72,54.9 17.62,54.9 17.62,56.9 19.62,56.9 
		19.62,60.8 25.52,60.8 25.52,62.8 27.52,62.8 27.52,60.8 29.52,60.8 29.52,64.8 31.52,64.8 25.52,64.8 25.52,68.7 27.52,68.7 
		23.62,68.7 23.62,70.7 17.62,70.7 	"/>
</g>
<g id="Layer_11">
	<polyline class="st19" points="-15.88,52.9 -17.88,52.9 -17.88,54.9 -19.88,54.9 -19.88,47 -17.88,47 -17.88,45 -21.78,45 
		-21.78,43.1 -23.78,43.1 -23.78,41.1 -21.78,41.1 -23.78,41.1 -21.78,41.1 -21.78,39.1 -23.78,39.1 -23.78,33.2 -25.78,33.2 
		-25.78,31.2 -23.78,31.2 -23.78,23.3 -25.78,23.3 -25.78,21.4 -27.78,21.4 -27.78,23.3 -27.78,21.4 -27.78,23.3 -27.78,21.4 
		-29.68,21.4 -29.68,23.3 -31.68,23.3 -31.68,25.3 -37.58,25.3 -37.58,27.3 -37.58,25.3 -39.58,25.3 -39.58,27.3 -39.58,25.3 
		-41.58,25.3 -39.58,25.3 -41.58,25.3 -41.58,23.3 -37.58,23.3 -39.58,23.3 -37.58,23.3 -37.58,21.4 -35.68,21.4 -35.68,19.4 
		-33.68,19.4 -33.68,17.4 -35.68,17.4 -31.68,17.4 -31.68,15.4 -29.68,15.4 -29.68,13.5 -27.78,13.5 -27.78,11.5 -25.78,11.5 
		-25.78,9.5 -25.78,11.5 -23.78,11.5 -23.78,9.5 -21.78,9.5 -21.78,11.5 -23.78,11.5 -21.78,11.5 -21.78,13.5 -17.88,13.5 
		-17.88,15.4 -15.88,15.4 -15.88,17.4 -15.88,15.4 -15.88,17.4 -15.88,15.4 -17.88,15.4 -17.88,17.4 -17.88,15.4 -17.88,17.4 
		-15.88,17.4 -17.88,17.4 -17.88,19.4 -19.88,19.4 -17.88,19.4 -19.88,19.4 -17.88,19.4 -17.88,25.3 -15.88,25.3 -15.88,27.3 
		-11.98,27.3 -11.98,29.2 -11.98,27.3 -9.98,27.3 -9.98,29.2 -7.98,29.2 -7.98,27.3 -6.08,27.3 -6.08,29.2 -4.08,29.2 -4.08,27.3 
		-2.08,27.3 -2.08,29.2 -2.08,27.3 -2.08,29.2 -0.08,29.2 -0.08,27.3 -0.08,29.2 -2.08,29.2 -2.08,35.2 -0.08,35.2 -2.08,35.2 
		-2.08,41.1 -4.08,41.1 -4.08,43.1 -0.08,43.1 -0.08,45 -2.08,45 -2.08,47 -4.08,47 -4.08,45 -4.08,47 -7.98,47 -7.98,45 -9.98,45 
		-9.98,49 -11.98,49 -9.98,49 -9.98,51 -7.98,51 -11.98,51 -11.98,52.9 -11.98,51 -11.98,52.9 -15.88,52.9 	"/>
</g>
<g id="Layer_10">
	<polyline class="st2" points="-15.88,52.9 -17.88,52.9 -17.88,54.9 -19.88,54.9 -19.88,47 -17.88,47 -17.88,45 -21.78,45 
		-21.78,43.1 -23.78,43.1 -23.78,41.1 -21.78,41.1 -23.78,41.1 -21.78,41.1 -21.78,39.1 -23.78,39.1 -23.78,33.2 -25.78,33.2 
		-25.78,31.2 -23.78,31.2 -23.78,23.3 -25.78,23.3 -25.78,21.4 -27.78,21.4 -27.78,23.3 -27.78,21.4 -27.78,23.3 -27.78,21.4 
		-29.68,21.4 -29.68,23.3 -31.68,23.3 -31.68,25.3 -37.58,25.3 -37.58,27.3 -37.58,25.3 -39.58,25.3 -39.58,27.3 -39.58,25.3 
		-41.58,25.3 -39.58,25.3 -41.58,25.3 -41.58,23.3 -37.58,23.3 -39.58,23.3 -37.58,23.3 -37.58,21.4 -35.68,21.4 -35.68,19.4 
		-33.68,19.4 -33.68,17.4 -35.68,17.4 -31.68,17.4 -31.68,15.4 -29.68,15.4 -29.68,13.5 -27.78,13.5 -27.78,11.5 -25.78,11.5 
		-25.78,9.5 -25.78,11.5 -23.78,11.5 -23.78,9.5 -21.78,9.5 -21.78,11.5 -23.78,11.5 -21.78,11.5 -21.78,13.5 -17.88,13.5 
		-17.88,15.4 -15.88,15.4 -15.88,17.4 -15.88,15.4 -15.88,17.4 -15.88,15.4 -17.88,15.4 -17.88,17.4 -17.88,15.4 -17.88,17.4 
		-15.88,17.4 -17.88,17.4 -17.88,19.4 -19.88,19.4 -17.88,19.4 -19.88,19.4 -17.88,19.4 -17.88,25.3 -15.88,25.3 -15.88,27.3 
		-11.98,27.3 -11.98,29.2 -11.98,27.3 -9.98,27.3 -9.98,29.2 -7.98,29.2 -7.98,27.3 -6.08,27.3 -6.08,29.2 -4.08,29.2 -4.08,27.3 
		-2.08,27.3 -2.08,29.2 -2.08,27.3 -2.08,29.2 -0.08,29.2 -0.08,27.3 -0.08,29.2 -2.08,29.2 -2.08,35.2 -0.08,35.2 -2.08,35.2 
		-2.08,41.1 -4.08,41.1 -4.08,43.1 -0.08,43.1 -0.08,45 -2.08,45 -2.08,47 -4.08,47 -4.08,45 -4.08,47 -7.98,47 -7.98,45 -9.98,45 
		-9.98,49 -11.98,49 -9.98,49 -9.98,51 -7.98,51 -11.98,51 -11.98,52.9 -11.98,51 -11.98,52.9 -15.88,52.9 	"/>
</g>
<g id="Layer_9">
	<polyline class="st14" points="17.62,-4.3 25.52,-4.3 25.52,-6.3 35.42,-6.3 35.42,-8.3 35.42,-6.3 37.42,-6.3 35.42,-6.3 
		35.42,-4.3 37.42,-4.3 37.42,-2.3 39.42,-2.3 39.42,-0.4 41.32,-0.4 39.42,-0.4 39.42,1.6 33.42,1.6 33.42,-0.4 33.42,1.6 
		31.52,1.6 31.52,-2.3 27.52,-2.3 27.52,3.6 25.52,3.6 25.52,5.6 23.62,5.6 23.62,7.5 19.62,7.5 19.62,5.6 19.62,7.5 17.62,7.5 
		17.62,9.5 13.72,9.5 15.72,9.5 15.72,11.5 13.72,11.5 13.72,13.5 11.72,13.5 13.72,13.5 13.72,15.4 9.72,15.4 9.72,13.5 1.82,13.5 
		1.82,15.4 -0.08,15.4 -0.08,17.4 -6.08,17.4 -4.08,17.4 -4.08,11.5 -11.98,11.5 -11.98,13.5 -13.88,13.5 -13.88,17.4 -15.88,17.4 
		-15.88,15.4 -17.88,15.4 -17.88,13.5 -21.78,13.5 -21.78,11.5 -23.78,11.5 -21.78,11.5 -21.78,9.5 -23.78,9.5 -23.78,7.5 
		-25.78,7.5 -25.78,5.6 -25.78,7.5 -25.78,-0.4 -29.68,-0.4 -29.68,-2.3 -31.68,-2.3 -31.68,-8.3 -33.68,-8.3 -33.68,-12.2 
		-35.68,-12.2 -35.68,-14.2 -31.68,-14.2 -31.68,-16.2 -29.68,-16.2 -29.68,-14.2 -29.68,-16.2 -25.78,-16.2 -25.78,-14.2 
		-19.88,-14.2 -21.78,-14.2 -19.88,-14.2 -19.88,-16.2 -21.78,-16.2 -21.78,-20.1 -19.88,-20.1 -19.88,-22.1 -17.88,-22.1 
		-17.88,-20.1 -17.88,-22.1 -15.88,-22.1 -15.88,-18.1 -13.88,-18.1 -13.88,-16.2 -11.98,-16.2 -11.98,-18.1 -9.98,-20.1 
		-9.98,-24.1 -11.98,-24.1 -9.98,-24.1 -9.98,-26 -7.98,-26 -7.98,-24.1 -0.08,-24.1 -0.08,-22.1 3.82,-22.1 3.82,-20.1 5.82,-20.1 
		3.82,-20.1 11.72,-20.1 11.72,-22.1 13.72,-22.1 13.72,-20.1 15.72,-22.1 15.72,-18.1 17.62,-18.1 17.62,-16.2 19.62,-16.2 
		17.62,-16.2 17.62,-12.2 15.72,-12.2 17.62,-12.2 15.72,-12.2 15.72,-10.2 17.62,-10.2 17.62,-4.3 15.72,-4.3 17.62,-4.3 	"/>
</g>
<g id="Layer_8">
	<polyline class="st2" points="17.62,-4.3 25.52,-4.3 25.52,-6.3 35.42,-6.3 35.42,-8.3 35.42,-6.3 37.42,-6.3 35.42,-6.3 
		35.42,-4.3 37.42,-4.3 37.42,-2.3 39.42,-2.3 39.42,-0.4 41.32,-0.4 39.42,-0.4 39.42,1.6 33.42,1.6 33.42,-0.4 33.42,1.6 
		31.52,1.6 31.52,-2.3 27.52,-2.3 27.52,3.6 25.52,3.6 25.52,5.6 23.62,5.6 23.62,7.5 19.62,7.5 19.62,5.6 19.62,7.5 17.62,7.5 
		17.62,9.5 13.72,9.5 15.72,9.5 15.72,11.5 13.72,11.5 13.72,13.5 11.72,13.5 13.72,13.5 13.72,15.4 9.72,15.4 9.72,13.5 1.82,13.5 
		1.82,15.4 -0.08,15.4 -0.08,17.4 -6.08,17.4 -4.08,17.4 -4.08,11.5 -11.98,11.5 -11.98,13.5 -13.88,13.5 -13.88,17.4 -15.88,17.4 
		-15.88,15.4 -17.88,15.4 -17.88,13.5 -21.78,13.5 -21.78,11.5 -23.78,11.5 -21.78,11.5 -21.78,9.5 -23.78,9.5 -23.78,7.5 
		-25.78,7.5 -25.78,5.6 -25.78,7.5 -25.78,-0.4 -29.68,-0.4 -29.68,-2.3 -31.68,-2.3 -31.68,-8.3 -33.68,-8.3 -33.68,-12.2 
		-35.68,-12.2 -35.68,-14.2 -31.68,-14.2 -31.68,-16.2 -29.68,-16.2 -29.68,-14.2 -29.68,-16.2 -25.78,-16.2 -25.78,-14.2 
		-19.88,-14.2 -21.78,-14.2 -19.88,-14.2 -19.88,-16.2 -21.78,-16.2 -21.78,-20.1 -19.88,-20.1 -19.88,-22.1 -17.88,-22.1 
		-17.88,-20.1 -17.88,-22.1 -15.88,-22.1 -15.88,-18.1 -13.88,-18.1 -13.88,-16.2 -11.98,-16.2 -11.98,-18.1 -9.98,-20.1 
		-9.98,-24.1 -11.98,-24.1 -9.98,-24.1 -9.98,-26 -7.98,-26 -7.98,-24.1 -0.08,-24.1 -0.08,-22.1 3.82,-22.1 3.82,-20.1 5.82,-20.1 
		3.82,-20.1 11.72,-20.1 11.72,-22.1 13.72,-22.1 13.72,-20.1 15.72,-22.1 15.72,-18.1 17.62,-18.1 17.62,-16.2 19.62,-16.2 
		17.62,-16.2 17.62,-12.2 15.72,-12.2 17.62,-12.2 15.72,-12.2 15.72,-10.2 17.62,-10.2 17.62,-4.3 15.72,-4.3 17.62,-4.3 	"/>
</g>
<g id="Layer_7">
	<polyline class="st20" points="-11.98,21.4 -13.88,21.4 -13.88,23.3 -13.88,19.4 -9.98,19.4 -11.98,19.4 -9.98,19.4 -11.98,19.4 
		-9.98,19.4 -9.98,17.4 -9.98,19.4 -7.98,19.4 -7.98,21.4 -9.98,21.4 -9.98,23.3 -11.98,23.3 -11.98,21.4 	"/>
</g>
<g id="Layer_6">
	<polyline class="st2" points="-11.98,21.4 -13.88,21.4 -13.88,23.3 -13.88,19.4 -9.98,19.4 -11.98,19.4 -9.98,19.4 -11.98,19.4 
		-9.98,19.4 -9.98,17.4 -9.98,19.4 -7.98,19.4 -7.98,21.4 -9.98,21.4 -9.98,23.3 -11.98,23.3 -11.98,21.4 	"/>
</g>
<g id="Layer_5">
	<polyline class="st21" points="-9.98,29.2 -9.98,27.3 -11.98,27.3 -11.98,29.2 -11.98,27.3 -15.88,27.3 -15.88,25.3 -17.88,25.3 
		-17.88,19.4 -19.88,19.4 -17.88,19.4 -19.88,19.4 -17.88,19.4 -17.88,17.4 -15.88,17.4 -17.88,17.4 -17.88,15.4 -17.88,17.4 
		-17.88,15.4 -15.88,15.4 -15.88,17.4 -15.88,15.4 -15.88,17.4 -15.88,15.4 -15.88,17.4 -13.88,17.4 -13.88,13.5 -11.98,13.5 
		-11.98,11.5 -4.08,11.5 -4.08,17.4 -6.08,17.4 -0.08,17.4 -2.08,17.4 -2.08,19.4 -0.08,19.4 -0.08,21.4 -2.08,21.4 -2.08,23.3 
		-0.08,23.3 -2.08,23.3 -2.08,27.3 -0.08,27.3 -2.08,27.3 -0.08,27.3 -0.08,29.2 -2.08,29.2 -2.08,27.3 -2.08,29.2 -2.08,27.3 
		-4.08,27.3 -4.08,29.2 -6.08,29.2 -6.08,27.3 -7.98,27.3 -7.98,29.2 -9.98,29.2 	"/>
</g>
<g id="Layer_4">
	<polyline class="st2" points="-9.98,29.2 -9.98,27.3 -11.98,27.3 -11.98,29.2 -11.98,27.3 -15.88,27.3 -15.88,25.3 -17.88,25.3 
		-17.88,19.4 -19.88,19.4 -17.88,19.4 -19.88,19.4 -17.88,19.4 -17.88,17.4 -15.88,17.4 -17.88,17.4 -17.88,15.4 -17.88,17.4 
		-17.88,15.4 -15.88,15.4 -15.88,17.4 -15.88,15.4 -15.88,17.4 -15.88,15.4 -15.88,17.4 -13.88,17.4 -13.88,13.5 -11.98,13.5 
		-11.98,11.5 -4.08,11.5 -4.08,17.4 -6.08,17.4 -0.08,17.4 -2.08,17.4 -2.08,19.4 -0.08,19.4 -0.08,21.4 -2.08,21.4 -2.08,23.3 
		-0.08,23.3 -2.08,23.3 -2.08,27.3 -0.08,27.3 -2.08,27.3 -0.08,27.3 -0.08,29.2 -2.08,29.2 -2.08,27.3 -2.08,29.2 -2.08,27.3 
		-4.08,27.3 -4.08,29.2 -6.08,29.2 -6.08,27.3 -7.98,27.3 -7.98,29.2 -9.98,29.2 	"/>
</g>
<g id="Layer_3">
	<polyline class="st21" points="-11.98,23.3 -9.98,23.3 -9.98,21.4 -7.98,21.4 -7.98,19.4 -9.98,19.4 -9.98,17.4 -9.98,19.4 
		-11.98,19.4 -9.98,19.4 -11.98,19.4 -9.98,19.4 -13.88,19.4 -13.88,23.3 -13.88,21.4 -11.98,21.4 -11.98,23.3 	"/>
</g>
<g id="Layer_2">
	<polyline class="st2" points="-11.98,23.3 -9.98,23.3 -9.98,21.4 -7.98,21.4 -7.98,19.4 -9.98,19.4 -9.98,17.4 -9.98,19.4 
		-11.98,19.4 -9.98,19.4 -11.98,19.4 -9.98,19.4 -13.88,19.4 -13.88,23.3 -13.88,21.4 -11.98,21.4 -11.98,23.3 	"/>
</g>
</svg>
